<svg xmlns="http://www.w3.org/2000/svg"
shape-rendering="geometricPrecision"
width="4000" height="4000" viewBox="0 0 1024 1024">
  <metadata>null</metadata>

<path d="
M 210.267 411.186
C 212.597 412.203 214.672 414.539 216.604 416.176
C 220.106 419.141 223.71 421.985 227.304 424.837
C 229.138 426.292 231.435 428.388 233.701 429.093
C 236.061 429.827 240.249 428.604 242.663 428.176
C 248.89 427.071 255.274 425.983 261.575 425.521
C 261.447 426.094 260.49 426.113 259.997 426.282
C 258.577 426.77 257.081 426.936 255.685 427.504
C 251.116 429.361 246.279 430.545 241.606 432.098
C 239.753 432.714 237.109 433.074 235.56 434.282
C 233.78 435.67 233.527 439.91 233.031 442.024
C 231.882 446.924 230.823 451.85 229.484 456.703
C 228.975 458.55 228.741 460.865 227.862 462.55
C 227.592 455.83 228.799 448.756 229.545 442.074
C 229.774 440.018 230.05 437.968 230.272 435.91
C 230.357 435.124 230.645 433.972 230.297 433.217
C 229.228 430.892 226.371 428.682 224.633 426.838
C 219.849 421.763 214.243 416.94 210.267 411.186 Z"
opacity="1" fill="rgb(31,44,77)" fill-rule="evenodd" />
<path d="
M 240.992 437.121
C 241.026 438.542 242.776 439.897 243.994 440.487
C 244.678 440.917 244.408 441.542 244.538 442.241
C 244.74 443.327 245.587 444.518 246.111 445.482
C 248.296 449.505 250.837 453.398 253.23 457.302
C 256.128 462.032 258.56 467.01 261.345 471.802
C 267.831 482.958 274.18 494.222 280.44 505.504
C 283.385 510.811 286.218 516.183 289.214 521.463
C 289.834 522.555 291.122 526.214 292.421 526.309
C 292.641 527.718 293.347 528.72 293.842 530.011
C 295.771 535.054 298.976 539.56 301.574 544.281
C 304.206 549.062 306.386 554.111 309.02 558.87
C 311.808 563.905 314.868 568.783 317.597 573.847
C 319.09 576.618 320.634 579.364 322.09 582.154
C 322.794 583.502 322.946 585.196 323.976 586.339
C 325.837 587.397 329.498 586.567 331.587 586.436
C 337.201 586.082 342.571 586 348.186 586.262
C 349.597 586.328 351.449 586.626 352.83 586.401
C 353.251 586.333 353.451 585.833 353.894 585.855
C 354.772 585.899 354.803 586.926 355.242 587.394
C 355.001 587.976 354.737 588.484 354.395 589.011
C 352.415 590.267 348.01 589.443 345.712 589.423
C 340.365 589.375 335.014 589.446 329.671 589.414
C 327.352 589.399 324.943 589.675 322.643 589.344
C 321.237 588.217 320.407 585.639 319.615 584.04
C 317.805 580.385 315.824 576.81 313.885 573.221
C 308.485 563.226 302.9 553.335 297.473 543.356
C 294.936 538.69 292.847 533.148 289.664 528.906
C 288.444 526.117 286.719 523.508 285.255 520.841
C 284.101 518.738 283.108 516.329 281.612 514.448
C 279.599 509.436 276.165 504.702 273.584 499.948
C 265.56 485.169 256.899 470.743 248.67 456.08
C 245.212 449.918 240.773 443.702 238.128 437.168
C 239.083 437.093 240.036 437.186 240.992 437.121 Z"
opacity="1" fill="rgb(2,13,37)" fill-rule="evenodd" />
<path d="
M 274.502 512.963
C 273.461 513.145 272.426 513.321 272.054 514.446
C 271.631 513.19 270.515 512.624 269.715 511.618
C 268.475 510.059 267.589 508.13 266.615 506.397
C 261.552 497.388 255.887 488.717 250.582 479.852
C 247.794 475.193 244.652 470.44 242.327 465.538
C 242.021 464.893 240.439 460.307 239.31 462.506
C 239.106 460.206 239.152 457.862 239.138 455.554
C 239.135 455.195 239.139 453.07 239.206 453.028
C 239.515 452.835 239.602 453.64 239.8 453.946
C 243.717 459.579 246.963 465.922 250.401 471.874
C 255.091 479.99 260.039 487.959 264.661 496.112
C 266.915 500.089 269.174 504.083 271.543 507.993
C 272.464 509.514 274.178 511.188 274.502 512.963 Z"
opacity="1" fill="rgb(58,74,114)" fill-rule="evenodd" />
<path d="
M 239.31 462.506
C 240.439 460.307 242.021 464.893 242.327 465.538
C 244.652 470.44 247.794 475.193 250.582 479.852
C 255.887 488.717 261.552 497.388 266.615 506.397
C 267.589 508.13 268.475 510.059 269.715 511.618
C 270.515 512.624 271.631 513.19 272.054 514.446
C 271.937 516.795 272.004 519.209 272.095 521.562
C 272.129 522.44 272.499 523.648 272.221 524.48
C 269.774 524.905 267.04 524.434 264.565 524.407
C 259.543 524.351 254.519 524.397 249.496 524.366
C 246.892 524.35 244.037 524.23 241.459 524.584
C 240.752 524.682 240.276 527.093 239.688 525.99
C 240.193 520.805 239.639 515.235 239.604 510.001
C 239.54 500.25 239.611 490.493 239.613 480.741
C 239.613 476.789 239.446 472.884 239.546 468.922
C 239.586 467.295 240.152 464.903 239.375 463.436
C 239.353 463.126 239.332 462.816 239.31 462.506 Z"
opacity="1" fill="rgb(22,39,80)" fill-rule="evenodd" />
<path d="
M 239.688 525.99
C 240.276 527.093 240.752 524.682 241.459 524.584
C 244.037 524.23 246.892 524.35 249.496 524.366
C 254.519 524.397 259.543 524.351 264.565 524.407
C 267.04 524.434 269.774 524.905 272.221 524.48
C 272.499 523.648 272.129 522.44 272.095 521.562
C 272.004 519.209 271.937 516.795 272.054 514.446
C 272.426 513.321 273.461 513.145 274.502 512.963
C 275.173 515.412 274.903 518.093 274.888 520.604
C 274.872 523.238 275.117 525.854 275.123 528.487
C 275.137 544.311 275.255 560.162 275.296 576
C 275.316 583.783 274.645 591.773 275.278 599.53
C 274.99 600.37 273.77 600.184 273.053 600.186
C 270.966 600.19 268.88 600.123 266.793 600.121
C 257.868 600.11 248.93 599.993 240.007 600.159
C 239.061 599.661 239.58 596.889 239.604 595.916
C 239.716 591.448 239.597 586.968 239.591 582.499
C 239.575 569.556 239.544 556.624 239.58 543.697
C 239.597 537.839 239.214 531.828 239.688 525.99 Z"
opacity="1" fill="rgb(12,20,48)" fill-rule="evenodd" />
<path d="
M 240.992 437.121
C 246.953 436.711 253.004 437.112 258.996 437.085
C 265.77 437.056 272.769 436.644 279.519 437.172
C 279.358 438.615 279.591 440.378 278.443 441.331
C 276.361 440.02 271.914 440.819 269.502 440.809
C 263.845 440.787 258.187 440.809 252.531 440.85
C 249.833 440.869 246.585 441.35 243.994 440.487
C 242.776 439.897 241.026 438.542 240.992 437.121 Z"
opacity="1" fill="rgb(120,129,159)" fill-rule="evenodd" />
<path d="
M 243.994 440.487
C 246.585 441.35 249.833 440.869 252.531 440.85
C 258.187 440.809 263.845 440.787 269.502 440.809
C 271.914 440.819 276.361 440.02 278.443 441.331
C 287.771 459.709 297.085 478.138 306.904 496.28
C 310.393 502.729 313.722 509.256 317.253 515.683
C 319.076 519 321.955 522.347 323.025 525.947
C 317.027 525.738 311.007 526.119 305.005 526.155
C 300.91 526.18 296.468 525.732 292.421 526.309
C 291.122 526.214 289.834 522.555 289.214 521.463
C 286.218 516.183 283.385 510.811 280.44 505.504
C 274.18 494.222 267.831 482.958 261.345 471.802
C 258.56 467.01 256.128 462.032 253.23 457.302
C 250.837 453.398 248.296 449.505 246.111 445.482
C 245.587 444.518 244.74 443.327 244.538 442.241
C 244.408 441.542 244.678 440.917 243.994 440.487 Z"
opacity="1" fill="rgb(26,48,94)" fill-rule="evenodd" />
<path d="
M 278.443 441.331
C 279.591 440.378 279.358 438.615 279.519 437.172
C 280.831 437.236 281.073 438.103 281.682 439.179
C 282.735 441.038 283.631 442.989 284.62 444.882
C 288.877 453.029 293.112 461.234 297.62 469.245
C 311.755 494.369 325.035 520.148 337.888 545.948
C 342.454 555.114 347.851 563.884 352.395 573.042
C 351.586 572.919 350.045 574.319 349.404 573.808
C 348.627 573.189 348.294 571.831 347.856 570.977
C 346.763 568.845 345.506 566.688 344.2 564.678
C 338.609 556.072 334.182 546.582 329.298 537.529
C 327.747 534.654 326.315 531.725 324.806 528.83
C 324.145 527.562 324.408 526.263 323.025 525.947
C 321.955 522.347 319.076 519 317.253 515.683
C 313.722 509.256 310.393 502.729 306.904 496.28
C 297.085 478.138 287.771 459.709 278.443 441.331 Z"
opacity="1" fill="rgb(41,62,102)" fill-rule="evenodd" />
<path d="
M 281.612 514.448
C 283.108 516.329 284.101 518.738 285.255 520.841
C 286.719 523.508 288.444 526.117 289.664 528.906
C 289.971 530.457 287.035 530.867 286.427 532.072
C 286.302 532.322 286.449 534.513 285.948 534.306
C 284.759 533.815 285.607 531.961 285.176 531.054
C 284.21 529.019 283.655 526.873 282.772 524.808
C 282.021 523.051 280.829 521.482 280.716 519.503
C 280.672 518.72 280.588 517.799 280.877 517.052
C 281.022 516.676 281.492 516.239 281.487 515.824
C 281.481 515.241 280.736 514.754 281.612 514.448 Z"
opacity="1" fill="rgb(201,204,205)" fill-rule="evenodd" />
<path d="
M 292.421 526.309
C 296.468 525.732 300.91 526.18 305.005 526.155
C 311.007 526.119 317.027 525.738 323.025 525.947
C 324.408 526.263 324.145 527.562 324.806 528.83
C 326.315 531.725 327.747 534.654 329.298 537.529
C 334.182 546.582 338.609 556.072 344.2 564.678
C 345.506 566.688 346.763 568.845 347.856 570.977
C 348.294 571.831 348.627 573.189 349.404 573.808
C 350.045 574.319 351.586 572.919 352.395 573.042
C 353.439 575.371 354.853 577.653 356.05 579.918
C 356.489 580.751 357.162 581.512 357.29 582.465
C 356.879 584.195 355.697 585.66 355.242 587.394
C 354.803 586.926 354.772 585.899 353.894 585.855
C 353.451 585.833 353.251 586.333 352.83 586.401
C 351.449 586.626 349.597 586.328 348.186 586.262
C 342.571 586 337.201 586.082 331.587 586.436
C 329.498 586.567 325.837 587.397 323.976 586.339
C 322.946 585.196 322.794 583.502 322.09 582.154
C 320.634 579.364 319.09 576.618 317.597 573.847
C 314.868 568.783 311.808 563.905 309.02 558.87
C 306.386 554.111 304.206 549.062 301.574 544.281
C 298.976 539.56 295.771 535.054 293.842 530.011
C 293.347 528.72 292.641 527.718 292.421 526.309 Z"
opacity="1" fill="rgb(12,20,51)" fill-rule="evenodd" />
<path d="
M 346.62 525.26
C 349.102 523.75 354.164 524.666 357.005 524.714
C 362.669 524.808 368.338 524.759 374.003 524.764
C 376.836 524.767 379.963 525.156 382.762 524.704
C 384.263 522.614 385.198 519.797 386.406 517.508
C 389.273 512.078 392.188 506.659 395.303 501.368
C 396.846 498.747 398.402 495.384 400.708 493.354
C 401.348 493.104 401.922 493.071 402.605 493.069
C 403.643 494.95 403.372 498.518 403.367 500.615
C 403.355 506.073 403.309 511.528 403.31 516.987
C 403.31 518.986 403.315 520.995 403.375 522.992
C 403.386 523.349 403.214 524.555 403.441 524.673
C 402.762 524.642 402.264 524.655 401.578 524.776
C 401.252 523.861 401.32 522.834 400.875 521.948
C 400.758 515.825 401 509.696 400.927 503.572
C 400.91 502.131 400.93 500.766 401.062 499.339
C 401.095 498.972 401.301 497.964 400.799 497.887
C 399.71 499.214 398.965 501.202 398.183 502.749
C 396.57 505.939 394.787 509.058 393.049 512.181
C 388.232 520.84 383.107 529.459 378.824 538.398
C 378.275 538.734 377.353 536.206 376.336 537.08
C 375.473 537.821 375.042 539.172 374.535 540.162
C 373.35 542.476 372.403 544.91 371.188 547.205
C 370.453 548.596 368.907 550.185 368.627 551.74
C 368.487 552.52 370.732 553.278 371.248 552.861
C 370.017 555.392 368.56 557.806 367.325 560.331
C 365.504 563.679 363.619 567.003 361.977 570.446
C 361.77 570.879 360.515 573.938 360.197 573.922
C 358.568 572.189 356.935 569.386 356.266 567.111
C 354.731 563.661 352.935 559.801 350.461 557.025
C 347.2 550.454 342.647 544.313 339.894 537.514
C 339.981 536.197 341.245 534.734 341.913 533.606
C 343.519 530.891 344.799 527.826 346.62 525.26 Z"
opacity="1" fill="rgb(14,25,61)" fill-rule="evenodd" />
<path d="
M 359.028 502.741
C 359.694 502.885 360.287 503.654 361.029 503.558
C 362.081 503.422 363.214 500.654 363.714 499.861
C 365.816 496.526 368.239 493.309 370.531 490.041
C 375.878 482.415 379.919 473.526 384.281 465.316
C 388.425 457.515 394.188 449.424 396.351 440.807
C 399.89 440.299 403.68 440.555 407.251 440.598
C 412.921 440.666 418.635 440.706 424.304 440.536
C 426.471 440.471 428.604 440.631 430.768 440.679
C 431.728 440.7 433.014 440.879 433.905 440.463
C 434.422 439.967 435.153 437.821 435.499 437.043
C 435.756 436.962 436.447 436.668 436.696 436.745
C 436.946 436.822 436.781 438.386 436.782 438.578
C 436.792 440.721 436.859 442.866 436.863 445.01
C 436.702 444.843 435.845 443.812 435.589 443.926
C 435.195 444.101 435.428 444.855 435.209 445.177
C 434.095 446.81 433.918 447.885 433.857 449.888
C 433.632 457.248 433.796 464.619 433.739 471.982
C 433.635 485.265 433.945 498.551 433.902 511.835
C 433.892 515.129 433.807 518.481 433.953 521.76
C 433.99 522.587 433.851 524.252 434.71 524.746
C 424.324 524.664 413.822 524.238 403.441 524.673
C 403.214 524.555 403.386 523.349 403.375 522.992
C 403.315 520.995 403.31 518.986 403.31 516.987
C 403.309 511.528 403.355 506.073 403.367 500.615
C 403.372 498.518 403.643 494.95 402.605 493.069
C 401.922 493.071 401.348 493.104 400.708 493.354
C 398.402 495.384 396.846 498.747 395.303 501.368
C 392.188 506.659 389.273 512.078 386.406 517.508
C 385.198 519.797 384.263 522.614 382.762 524.704
C 379.963 525.156 376.836 524.767 374.003 524.764
C 368.338 524.759 362.669 524.808 357.005 524.714
C 354.164 524.666 349.102 523.75 346.62 525.26
C 349.104 520.134 352.072 515.206 354.852 510.233
C 356.201 507.818 357.297 504.897 359.028 502.741 Z"
opacity="1" fill="rgb(34,66,115)" fill-rule="evenodd" />
<path d="
M 350.461 557.025
C 352.935 559.801 354.731 563.661 356.266 567.111
C 355.321 566.339 354.857 564.91 354.275 563.86
C 353.015 561.588 351.634 559.338 350.461 557.025 Z"
opacity="1" fill="rgb(29,36,74)" fill-rule="evenodd" />
<path d="
M 396.492 436.772
C 396.036 437.376 395.233 440.44 396.351 440.807
C 394.188 449.424 388.425 457.515 384.281 465.316
C 379.919 473.526 375.878 482.415 370.531 490.041
C 368.239 493.309 365.816 496.526 363.714 499.861
C 363.214 500.654 362.081 503.422 361.029 503.558
C 360.287 503.654 359.694 502.885 359.028 502.741
C 359.796 500.643 361.188 498.702 362.248 496.739
C 364.51 492.551 366.821 488.39 369.126 484.226
C 375.081 473.471 380.886 462.616 386.626 451.745
C 388.579 448.046 390.494 444.329 392.496 440.657
C 392.959 439.806 393.862 437.029 394.849 436.711
C 395.341 436.552 395.987 436.748 396.492 436.772 Z"
opacity="1" fill="rgb(32,60,104)" fill-rule="evenodd" />
<path d="
M 378.824 538.398
C 377.112 542.373 374.622 546.009 372.724 549.896
C 372.188 550.856 371.67 551.846 371.248 552.861
C 370.732 553.278 368.487 552.52 368.627 551.74
C 368.907 550.185 370.453 548.596 371.188 547.205
C 372.403 544.91 373.35 542.476 374.535 540.162
C 375.042 539.172 375.473 537.821 376.336 537.08
C 377.353 536.206 378.275 538.734 378.824 538.398 Z"
opacity="1" fill="rgb(0,17,35)" fill-rule="evenodd" />
<path d="
M 396.492 436.772
C 404.99 436.656 413.507 436.767 422.007 436.813
C 426.385 436.837 431.198 436.25 435.499 437.043
C 435.153 437.821 434.422 439.967 433.905 440.463
C 433.014 440.879 431.728 440.7 430.768 440.679
C 428.604 440.631 426.471 440.471 424.304 440.536
C 418.635 440.706 412.921 440.666 407.251 440.598
C 403.68 440.555 399.89 440.299 396.351 440.807
C 395.233 440.44 396.036 437.376 396.492 436.772 Z"
opacity="1" fill="rgb(117,126,154)" fill-rule="evenodd" />
<path d="
M 401.578 524.776
C 402.264 524.655 402.762 524.642 403.441 524.673
C 413.822 524.238 424.324 524.664 434.71 524.746
C 433.851 524.252 433.99 522.587 433.953 521.76
C 433.807 518.481 433.892 515.129 433.902 511.835
C 433.945 498.551 433.635 485.265 433.739 471.982
C 433.796 464.619 433.632 457.248 433.857 449.888
C 433.918 447.885 434.095 446.81 435.209 445.177
C 435.428 444.855 435.195 444.101 435.589 443.926
C 435.845 443.812 436.702 444.843 436.863 445.01
C 436.863 489.834 436.869 534.665 437 579.483
C 436.912 583.823 436.937 588.162 436.91 592.504
C 436.895 594.945 436.639 597.551 436.982 599.965
C 431.029 599.582 424.968 599.923 419 599.876
C 413.379 599.832 407.6 599.445 402 599.998
C 401.946 599.998 400.943 600.017 400.857 599.926
C 400.657 599.714 400.817 598.755 400.819 598.499
C 400.83 596.84 400.849 595.175 400.887 593.514
C 401.057 586.184 400.774 578.83 400.768 571.497
C 400.758 560.172 400.896 548.847 400.916 537.522
C 400.921 534.539 400.634 531.499 400.862 528.528
C 400.954 527.328 400.878 525.781 401.578 524.776 Z"
opacity="1" fill="rgb(12,20,50)" fill-rule="evenodd" />
<path d="
M 455.76 571.973
C 456.521 573.783 456.148 576.527 456.155 578.488
C 456.171 582.656 456.123 586.823 456.049 590.99
C 456.015 592.913 456.415 594.603 455.725 596.472
C 455.855 594.075 455.442 591.757 455.389 589.494
C 455.375 588.913 455.87 588.55 455.794 587.967
C 455.724 587.422 455.361 587.169 455.358 586.551
C 455.351 585.477 455.809 584.524 455.837 583.469
C 455.941 579.645 455.83 575.797 455.76 571.973 Z"
opacity="1" fill="rgb(37,52,87)" fill-rule="evenodd" />
<path d="
M 457.836 437.366
C 457.934 438.406 458.247 440.084 458.928 440.903
C 457.936 444.592 458.484 448.425 458.555 452.333
C 458.667 458.435 458.629 464.56 458.656 470.664
C 466.35 470.037 474.277 470.569 481.998 470.546
C 497.336 470.501 512.661 470.493 528 470.541
C 536.998 470.57 545.998 470.602 554.997 470.584
C 560.68 470.573 566.737 470.102 572.354 471.126
C 581.265 472.752 588.134 480.18 587.965 489.475
C 587.888 493.726 586.404 497.167 584.468 500.863
C 583.302 503.09 582.25 505.625 580.402 507.38
C 579.78 507.306 578.669 505.772 578.762 505.198
C 586.36 498.709 587.686 485.22 579.709 478.322
C 576.728 475.744 573.125 474.53 569.237 474.271
C 561.033 473.726 552.721 474.06 544.503 474.074
C 531.669 474.096 518.836 474.027 506.002 474.039
C 499.636 474.045 493.153 474.379 486.803 473.971
C 479.566 473.505 472.102 474.003 464.836 474.044
C 462.165 474.06 458.384 474.791 455.841 474.092
C 455.816 464.732 455.84 455.37 455.858 446.009
C 455.863 443.742 455.737 441.467 455.862 439.202
C 455.88 438.881 455.972 437.239 456.152 437.131
C 456.371 436.999 457.43 437.401 457.836 437.366 Z"
opacity="1" fill="rgb(44,53,69)" fill-rule="evenodd" />
<path d="
M 457.505 508.292
C 457.912 509.611 458.262 510.95 458.718 512.254
C 457.753 515.456 458.423 519.183 458.361 522.488
C 458.039 538.082 459.182 553.898 457.996 569.474
C 457.761 572.548 457.659 575.586 457.725 578.681
C 457.752 579.93 458.113 581.168 458.043 582.401
C 457.858 585.651 457.518 588.798 457.593 592.071
C 457.625 593.486 457.436 595.031 457.989 596.358
C 458.806 596.909 460.047 596.613 460.985 596.592
C 463.168 596.541 465.327 596.574 467.505 596.412
C 472.831 596.016 478.351 596.24 483.689 596.34
C 486.684 596.396 490.028 596.921 492.943 595.972
C 492.977 596.667 493.072 597.324 493.194 598.008
C 493.191 598.619 493.172 599.226 493.19 599.838
C 492.303 600.307 490.984 599.942 489.998 599.93
C 487.498 599.9 485 599.902 482.5 599.89
C 473.713 599.845 464.578 599.211 455.829 600.025
C 455.412 598.93 455.684 597.622 455.725 596.472
C 456.415 594.603 456.015 592.913 456.049 590.99
C 456.123 586.823 456.171 582.656 456.155 578.488
C 456.148 576.527 456.521 573.783 455.76 571.973
C 455.552 555.652 455.895 539.318 455.617 523
C 455.554 519.329 455.602 515.659 455.603 511.988
C 455.603 511.342 455.285 508.861 455.698 508.377
C 455.893 508.147 457.191 508.314 457.505 508.292 Z"
opacity="1" fill="rgb(9,32,67)" fill-rule="evenodd" />
<path d="
M 457.505 508.292
C 460.592 508.637 463.893 508.317 467.006 508.33
C 473.172 508.356 479.337 508.379 485.503 508.384
C 505.17 508.4 524.838 508.26 544.504 508.294
C 550.779 508.304 557.054 508.243 563.329 508.228
C 569.001 508.214 573.906 508.566 578.762 505.198
C 578.669 505.772 579.78 507.306 580.402 507.38
C 575.852 511.924 570.459 511.769 564.497 511.789
C 558.498 511.81 552.5 511.752 546.502 511.787
C 527.836 511.896 509.171 511.928 490.505 511.921
C 479.988 511.917 469.2 511.347 458.718 512.254
C 458.262 510.95 457.912 509.611 457.505 508.292 Z"
opacity="0.996" fill="rgb(163,193,225)" fill-rule="evenodd" />
<path d="
M 457.836 437.366
C 459.309 436.726 460.927 437.046 462.491 437.093
C 464.488 437.152 466.495 437.077 468.494 437.068
C 476.995 437.028 485.497 437.091 493.999 437.112
C 513.5 437.16 533.001 437.075 552.501 437.151
C 559.428 437.178 566.549 436.867 573.448 437.553
C 582.211 438.424 591.111 441.497 598.429 446.432
C 603.485 449.842 607.937 453.702 611.571 458.636
C 630.385 484.176 622.413 524.521 594.646 539.971
C 588.879 543.18 581.981 545.682 575.427 546.581
C 568.266 547.564 560.722 546.956 553.506 546.948
C 539.952 546.931 526.395 546.881 512.841 547.009
C 506.36 547.07 499.751 546.741 493.301 547.336
C 492.383 554.344 493.246 561.932 493.242 569.004
C 493.247 571.016 493.115 572.983 493.004 574.973
C 492.371 575.082 491.62 575.142 491.142 575.62
C 490.98 575.782 490.709 577.012 490.402 576.777
C 489.97 576.447 490.187 575.34 490.192 574.886
C 490.216 572.913 490.27 570.94 490.326 568.968
C 490.507 562.613 490.251 556.344 490.266 549.993
C 490.273 547.377 490.47 544.569 493.409 543.649
C 495.54 542.981 498.292 543.421 500.506 543.405
C 505.34 543.368 510.173 543.374 515.007 543.37
C 528.341 543.361 541.675 543.276 555.008 543.319
C 566.547 543.355 577.77 543.823 588.511 538.859
C 595.684 535.543 602.054 531.272 606.962 524.982
C 608.085 523.542 609.596 522.103 610.36 520.432
C 611.395 517.419 613.359 514.645 614.475 511.607
C 616.73 505.473 617.948 498.769 618.29 492.255
C 618.689 484.644 618.058 476.537 614.911 469.506
C 613.868 467.175 611.642 466.766 610.256 464.787
C 608.179 461.821 606.632 458.623 604.214 455.877
C 598.657 449.567 590.563 445.16 582.507 442.937
C 575.267 440.938 567.776 440.915 560.321 440.883
C 552.88 440.851 545.44 440.846 537.999 440.82
C 511.656 440.73 485.265 440.442 458.928 440.903
C 458.247 440.084 457.934 438.406 457.836 437.366 Z"
opacity="1" fill="rgb(82,97,117)" fill-rule="evenodd" />
<path d="
M 458.361 522.488
C 458.71 523.679 459.731 523.33 460.854 523.309
C 462.882 523.271 464.909 523.195 466.936 523.171
C 476.048 523.062 485.146 522.736 494.259 522.593
C 521.003 522.174 547.747 521.314 574.495 520.748
C 582.837 520.572 591.16 520.318 599.501 520.298
C 602.75 520.29 607.259 519.501 610.36 520.432
C 609.596 522.103 608.085 523.542 606.962 524.982
C 602.054 531.272 595.684 535.543 588.511 538.859
C 577.77 543.823 566.547 543.355 555.008 543.319
C 541.675 543.276 528.341 543.361 515.007 543.37
C 510.173 543.374 505.34 543.368 500.506 543.405
C 498.292 543.421 495.54 542.981 493.409 543.649
C 490.47 544.569 490.273 547.377 490.266 549.993
C 490.251 556.344 490.507 562.613 490.326 568.968
C 490.27 570.94 490.216 572.913 490.192 574.886
C 490.187 575.34 489.97 576.447 490.402 576.777
C 490.709 577.012 490.98 575.782 491.142 575.62
C 491.62 575.142 492.371 575.082 493.004 574.973
C 493.401 577.454 493.197 580.047 493.194 582.551
C 493.19 587.03 493.19 591.509 492.943 595.972
C 490.028 596.921 486.684 596.396 483.689 596.34
C 478.351 596.24 472.831 596.016 467.505 596.412
C 465.327 596.574 463.168 596.541 460.985 596.592
C 460.047 596.613 458.806 596.909 457.989 596.358
C 457.436 595.031 457.625 593.486 457.593 592.071
C 457.518 588.798 457.858 585.651 458.043 582.401
C 458.113 581.168 457.752 579.93 457.725 578.681
C 457.659 575.586 457.761 572.548 457.996 569.474
C 459.182 553.898 458.039 538.082 458.361 522.488 Z"
opacity="1" fill="rgb(64,104,151)" fill-rule="evenodd" />
<path d="
M 458.928 440.903
C 485.265 440.442 511.656 440.73 537.999 440.82
C 545.44 440.846 552.88 440.851 560.321 440.883
C 567.776 440.915 575.267 440.938 582.507 442.937
C 590.563 445.16 598.657 449.567 604.214 455.877
C 606.632 458.623 608.179 461.821 610.256 464.787
C 611.642 466.766 613.868 467.175 614.911 469.506
C 618.058 476.537 618.689 484.644 618.29 492.255
C 617.948 498.769 616.73 505.473 614.475 511.607
C 613.359 514.645 611.395 517.419 610.36 520.432
C 607.259 519.501 602.75 520.29 599.501 520.298
C 591.16 520.318 582.837 520.572 574.495 520.748
C 547.747 521.314 521.003 522.174 494.259 522.593
C 485.146 522.736 476.048 523.062 466.936 523.171
C 464.909 523.195 462.882 523.271 460.854 523.309
C 459.731 523.33 458.71 523.679 458.361 522.488
C 458.423 519.183 457.753 515.456 458.718 512.254
C 469.2 511.347 479.988 511.917 490.505 511.921
C 509.171 511.928 527.836 511.896 546.502 511.787
C 552.5 511.752 558.498 511.81 564.497 511.789
C 570.459 511.769 575.852 511.924 580.402 507.38
C 582.25 505.625 583.302 503.09 584.468 500.863
C 586.404 497.167 587.888 493.726 587.965 489.475
C 588.134 480.18 581.265 472.752 572.354 471.126
C 566.737 470.102 560.68 470.573 554.997 470.584
C 545.998 470.602 536.998 470.57 528 470.541
C 512.661 470.493 497.336 470.501 481.998 470.546
C 474.277 470.569 466.35 470.037 458.656 470.664
C 458.629 464.56 458.667 458.435 458.555 452.333
C 458.484 448.425 457.936 444.592 458.928 440.903 Z"
opacity="1" fill="rgb(89,111,138)" fill-rule="evenodd" />
<path d="
M 793.988 437.15
C 793.143 438.451 791.182 439.86 789.85 440.791
C 786.901 441.388 783.506 440.93 780.501 440.916
C 774.668 440.889 768.835 440.912 763.002 440.898
C 747.169 440.859 731.334 440.859 715.502 440.901
C 701.771 440.937 688.474 440.69 675.461 445.748
C 662.993 450.595 653.048 459.95 645.282 470.588
C 641.205 476.172 636.811 481.561 634.58 488.178
C 631.15 498.353 630.442 508.947 630.293 519.596
C 629.661 519.585 629.234 519.672 629.127 520.422
C 628.929 521.798 629.789 523.275 629.604 524.755
C 629.44 526.064 628.51 527.185 628.237 528.532
C 627.475 517.145 627.594 506.133 630.384 494.971
C 632.292 487.337 635.031 479.877 638.934 473.027
C 649.116 455.16 666.874 442.456 687.039 438.551
C 699.057 436.224 711.826 437.23 724.003 437.251
C 740.334 437.279 756.663 437.183 772.994 437.099
C 779.967 437.063 787.052 437.442 793.988 437.15 Z"
opacity="1" fill="rgb(139,141,146)" fill-rule="evenodd" />
<path d="
M 628.237 528.532
C 628.51 527.185 629.44 526.064 629.604 524.755
C 629.789 523.275 628.929 521.798 629.127 520.422
C 629.234 519.672 629.661 519.585 630.293 519.596
C 630.665 519.659 630.444 519.642 630.96 519.59
C 630.121 520.536 630.112 522.362 630.203 523.591
C 630.466 527.109 630.912 530.828 631.778 534.25
C 635.229 547.887 639.608 561.652 649.449 572.227
C 658.361 581.804 668.975 589.369 681.667 593.118
C 693.005 596.467 704.312 596.13 715.997 596.104
C 729.664 596.074 743.332 596.083 756.999 596.096
C 766.249 596.105 775.517 595.921 784.765 596.136
C 787.052 596.189 789.334 596.204 791.621 596.135
C 792.15 596.119 793.447 596.354 793.81 595.911
C 792.337 590.512 793.26 585.035 793.09 579.433
C 792.738 567.841 792.52 556.304 792.703 544.71
C 792.805 538.235 792.415 531.906 792.784 525.419
C 792.866 523.966 792.834 522.517 792.85 521.063
C 792.855 520.561 792.788 519.648 793.228 519.273
C 794.238 518.41 794.871 520.251 795.424 520.981
C 795.523 521.553 795.663 522.115 795.769 522.686
C 796.4 529.008 795.763 535.631 795.827 541.989
C 795.968 556.144 796.067 570.333 795.877 584.486
C 795.816 589.444 795.234 594.904 795.805 599.813
C 787.333 599.073 778.501 599.762 769.995 599.76
C 752.995 599.755 735.995 599.765 718.995 599.74
C 708.903 599.725 698.572 600.42 688.598 598.559
C 671.017 595.277 654.857 585.371 644.115 571.064
C 640.294 565.975 637.056 560.364 634.669 554.459
C 631.309 546.15 628.842 537.521 628.237 528.532 Z"
opacity="1" fill="rgb(29,33,36)" fill-rule="evenodd" />
<path d="
M 789.85 440.791
C 787.818 442.898 786.308 445.835 784.746 448.307
C 781.508 453.435 778.423 458.674 774.939 463.641
C 773.448 465.766 771.997 469.23 769.811 470.676
C 763.504 471.39 756.846 470.795 750.503 470.781
C 738.335 470.754 726.167 470.735 713.999 470.741
C 707.862 470.744 701.491 470.379 695.426 471.462
C 687.56 472.868 680.063 477.103 674.477 482.751
C 667.177 490.132 662.537 499.848 661.752 510.234
C 661.593 512.336 661.587 514.456 661.571 516.564
C 661.564 517.446 661.464 518.632 662.011 519.374
C 661.659 519.503 661.306 519.629 660.954 519.755
C 658.503 518.636 654.449 519.357 651.79 519.39
C 644.888 519.473 637.83 518.924 630.96 519.59
C 630.444 519.642 630.665 519.659 630.293 519.596
C 630.442 508.947 631.15 498.353 634.58 488.178
C 636.811 481.561 641.205 476.172 645.282 470.588
C 653.048 459.95 662.993 450.595 675.461 445.748
C 688.474 440.69 701.771 440.937 715.502 440.901
C 731.334 440.859 747.169 440.859 763.002 440.898
C 768.835 440.912 774.668 440.889 780.501 440.916
C 783.506 440.93 786.901 441.388 789.85 440.791 Z"
opacity="1" fill="rgb(102,105,114)" fill-rule="evenodd" />
<path d="
M 630.96 519.59
C 637.83 518.924 644.888 519.473 651.79 519.39
C 654.449 519.357 658.503 518.636 660.954 519.755
C 660.792 521.927 661.827 524.563 662.055 526.791
C 662.436 530.534 661.968 534.663 663.189 538.235
C 667.463 550.736 679.572 561.285 692.161 564.762
C 700.505 567.067 709.922 565.961 718.503 565.952
C 733.166 565.936 747.907 566.31 762.561 565.917
C 763.014 565.688 762.733 563.263 762.596 562.765
C 762.021 562.542 761.445 562.322 760.859 562.127
C 760.74 561.435 760.737 560.748 760.673 560.051
C 762.528 560.262 762.027 555.774 762.382 554.58
C 763.626 550.395 763.263 545.242 763.274 540.909
C 763.279 538.928 763.209 536.675 761.48 535.363
C 760.184 534.38 758.526 534.619 756.998 534.602
C 754.039 534.569 751.075 534.563 748.117 534.497
C 740.249 534.32 732.373 534.415 724.502 534.384
C 719.904 534.366 715.085 533.967 710.512 534.406
C 709.857 533.644 710.248 531.19 710.22 530.204
C 710.125 526.751 709.711 523.218 709.879 519.77
C 709.941 518.501 709.956 516.75 710.986 515.843
C 730.32 515.726 749.659 515.869 768.995 515.815
C 774.663 515.799 780.327 515.838 785.995 515.873
C 788.148 515.887 790.643 516.34 792.747 516.113
C 793.317 513.682 792.354 510.427 792.335 507.926
C 792.526 506.287 793.79 504.933 795.04 503.977
C 796.13 503.965 795.73 506.559 795.742 507.51
C 795.786 511.091 795.723 514.674 795.771 518.255
C 795.704 519.172 795.482 520.063 795.424 520.981
C 794.871 520.251 794.238 518.41 793.228 519.273
C 792.788 519.648 792.855 520.561 792.85 521.063
C 792.834 522.517 792.866 523.966 792.784 525.419
C 792.415 531.906 792.805 538.235 792.703 544.71
C 792.52 556.304 792.738 567.841 793.09 579.433
C 793.26 585.035 792.337 590.512 793.81 595.911
C 793.447 596.354 792.15 596.119 791.621 596.135
C 789.334 596.204 787.052 596.189 784.765 596.136
C 775.517 595.921 766.249 596.105 756.999 596.096
C 743.332 596.083 729.664 596.074 715.997 596.104
C 704.312 596.13 693.005 596.467 681.667 593.118
C 668.975 589.369 658.361 581.804 649.449 572.227
C 639.608 561.652 635.229 547.887 631.778 534.25
C 630.912 530.828 630.466 527.109 630.203 523.591
C 630.112 522.362 630.121 520.536 630.96 519.59 Z"
opacity="1" fill="rgb(54,56,62)" fill-rule="evenodd" />
<path d="
M 660.954 519.755
C 661.306 519.629 661.659 519.503 662.011 519.374
C 662.799 519.582 663.622 519.158 664.427 519.499
C 664.533 524.572 665.328 529.878 666.96 534.694
C 671.287 547.458 680.7 558.172 694.066 561.77
C 699.524 563.238 705.399 562.617 710.997 562.594
C 718.677 562.562 726.48 563.003 734.142 562.494
C 740.208 562.091 746.424 562.471 752.503 562.461
C 755.246 562.456 758.173 562.748 760.859 562.127
C 761.445 562.322 762.021 562.542 762.596 562.765
C 762.733 563.263 763.014 565.688 762.561 565.917
C 747.907 566.31 733.166 565.936 718.503 565.952
C 709.922 565.961 700.505 567.067 692.161 564.762
C 679.572 561.285 667.463 550.736 663.189 538.235
C 661.968 534.663 662.436 530.534 662.055 526.791
C 661.827 524.563 660.792 521.927 660.954 519.755 Z"
opacity="1" fill="rgb(120,118,124)" fill-rule="evenodd" />
<path d="
M 789.85 440.791
C 791.182 439.86 793.143 438.451 793.988 437.15
C 794.74 437.101 795.418 437.121 796.165 437.242
C 796.413 437.953 795.583 438.823 795.219 439.409
C 794.148 441.134 792.972 442.819 791.836 444.502
C 787.207 451.353 782.861 458.403 778.169 465.208
C 776.712 467.335 775.337 469.52 773.888 471.652
C 773.342 472.456 772.858 473.884 771.943 474.296
C 765.843 474.732 759.62 474.332 753.505 474.323
C 741.336 474.305 729.167 474.246 716.998 474.252
C 710.26 474.255 702.913 473.458 696.281 474.886
C 682.024 477.955 671.003 488.904 666.676 502.653
C 664.983 508.032 664.489 513.893 664.427 519.499
C 663.622 519.158 662.799 519.582 662.011 519.374
C 661.464 518.632 661.564 517.446 661.571 516.564
C 661.587 514.456 661.593 512.336 661.752 510.234
C 662.537 499.848 667.177 490.132 674.477 482.751
C 680.063 477.103 687.56 472.868 695.426 471.462
C 701.491 470.379 707.862 470.744 713.999 470.741
C 726.167 470.735 738.335 470.754 750.503 470.781
C 756.846 470.795 763.504 471.39 769.811 470.676
C 771.997 469.23 773.448 465.766 774.939 463.641
C 778.423 458.674 781.508 453.435 784.746 448.307
C 786.308 445.835 787.818 442.898 789.85 440.791 Z"
opacity="1" fill="rgb(47,51,55)" fill-rule="evenodd" />
<path d="
M 708.975 504.296
C 709.522 505.436 710.092 506.731 710.293 507.984
C 710.426 509.806 710.345 511.666 710.329 513.492
C 710.323 514.151 710.109 515.268 710.423 515.826
C 709.433 515.947 708.68 516.091 707.75 516.478
C 707.837 513.533 707.693 510.456 707.605 507.498
C 707.588 506.952 707.293 504.646 707.676 504.278
C 707.78 504.177 708.749 504.277 708.975 504.296 Z"
opacity="1" fill="rgb(88,95,102)" fill-rule="evenodd" />
<path d="
M 707.75 516.478
C 708.68 516.091 709.433 515.947 710.423 515.826
C 710.61 515.832 710.798 515.837 710.986 515.843
C 709.956 516.75 709.941 518.501 709.879 519.77
C 709.711 523.218 710.125 526.751 710.22 530.204
C 710.248 531.19 709.857 533.644 710.512 534.406
C 715.085 533.967 719.904 534.366 724.502 534.384
C 732.373 534.415 740.249 534.32 748.117 534.497
C 751.075 534.563 754.039 534.569 756.998 534.602
C 758.526 534.619 760.184 534.38 761.48 535.363
C 763.209 536.675 763.279 538.928 763.274 540.909
C 763.263 545.242 763.626 550.395 762.382 554.58
C 762.027 555.774 762.528 560.262 760.673 560.051
C 760.169 554.842 760.762 549.232 760.865 543.991
C 760.889 542.793 761.472 539.157 760.732 538.276
C 747.845 537.79 734.896 538.127 722.001 538.105
C 717.276 538.097 712.311 538.54 707.617 538.152
C 707.658 530.929 707.665 523.702 707.75 516.478 Z"
opacity="1" fill="rgb(32,36,42)" fill-rule="evenodd" />
<path d="
M 708.975 504.296
C 710.564 504.41 712.277 503.958 713.893 503.955
C 719.402 503.943 724.935 503.949 730.442 503.956
C 751.951 503.986 773.546 503.398 795.04 503.977
C 793.79 504.933 792.526 506.287 792.335 507.926
C 791.23 507.112 788.364 507.673 787.009 507.658
C 782.007 507.603 777.006 507.598 772.004 507.599
C 757.836 507.602 743.666 507.474 729.499 507.623
C 725.334 507.667 721.167 507.748 717.002 507.741
C 714.881 507.738 712.337 507.439 710.293 507.984
C 710.092 506.731 709.522 505.436 708.975 504.296 Z"
opacity="0.996" fill="rgb(187,188,191)" fill-rule="evenodd" />
<path d="
M 710.293 507.984
C 712.337 507.439 714.881 507.738 717.002 507.741
C 721.167 507.748 725.334 507.667 729.499 507.623
C 743.666 507.474 757.836 507.602 772.004 507.599
C 777.006 507.598 782.007 507.603 787.009 507.658
C 788.364 507.673 791.23 507.112 792.335 507.926
C 792.354 510.427 793.317 513.682 792.747 516.113
C 790.643 516.34 788.148 515.887 785.995 515.873
C 780.327 515.838 774.663 515.799 768.995 515.815
C 749.659 515.869 730.32 515.726 710.986 515.843
C 710.798 515.837 710.61 515.832 710.423 515.826
C 710.109 515.268 710.323 514.151 710.329 513.492
C 710.345 511.666 710.426 509.806 710.293 507.984 Z"
opacity="1" fill="rgb(130,132,138)" fill-rule="evenodd" />

</svg>