<svg xmlns="http://www.w3.org/2000/svg"
shape-rendering="geometricPrecision"
width="4000" height="4000" viewBox="0 0 1024 1024">
  <metadata>null</metadata>

<path d="
M 166.312 443.315
C 167.998 443.61 169.283 445.206 170.564 446.271
C 172.987 448.285 175.462 450.276 177.942 452.223
C 179.117 453.145 180.391 454.393 181.772 454.994
C 183.254 455.638 186.366 454.818 187.926 454.567
C 192.756 453.789 197.681 452.691 202.542 452.471
C 202.468 453.259 198.663 453.92 197.844 454.157
C 194.285 455.188 190.756 456.443 187.206 457.546
C 185.955 457.935 184.003 458.217 183.113 459.268
C 182.222 460.32 182.089 462.371 181.758 463.684
C 180.823 467.391 180.042 471.145 179.068 474.838
C 178.76 476.004 178.361 477.138 178.127 478.322
C 178.064 478.642 178.011 479.435 177.557 479.422
C 177.407 474.524 178.284 469.159 178.923 464.293
C 179.135 462.677 180.177 459.414 179.522 457.894
C 178.983 456.645 177.671 455.578 176.774 454.567
C 174.648 452.168 172.361 449.807 170.061 447.575
C 168.767 446.319 167.035 444.985 166.312 443.315 Z"
opacity="1" fill="rgb(36,49,80)" fill-rule="evenodd" />
<path d="
M 187.978 461.318
C 188.068 461.981 188.158 462.603 188.701 463.039
C 191.155 463.731 193.605 463.382 196.111 463.422
C 202.268 463.52 208.439 463.049 214.573 463.789
C 215.397 464.182 215.635 465.588 216.044 466.394
C 217.368 469.005 218.377 471.762 219.783 474.341
C 224.364 482.741 228.63 491.566 233.65 499.6
C 234.484 500.936 235.014 503.034 236.18 504.102
C 236.779 504.651 237.677 504.256 238.221 504.926
C 239.506 506.51 239.461 507.706 241.594 508.422
C 242.489 509.436 242.938 510.722 243.563 511.902
C 245.164 514.923 246.775 517.94 248.385 520.956
C 253.423 530.394 258.065 540.044 263.174 549.444
C 264.908 552.633 266.774 555.749 268.626 558.87
C 269.464 560.281 270.877 561.897 270.812 563.609
C 269.743 562.973 269.087 561.633 268.466 560.594
C 267.153 558.398 265.703 556.282 264.31 554.137
C 258.417 545.062 252.239 536.289 248.009 526.302
C 246.56 525.293 243.226 525.856 241.498 525.843
C 235.999 525.8 230.103 526.516 224.653 525.857
C 222.187 522.449 220.354 518.331 218.229 514.688
C 212.151 504.268 206.142 493.81 200.138 483.349
C 198.208 479.987 196.077 476.783 194.069 473.474
C 193.768 472.978 192.674 470.499 192.032 470.46
C 191.425 470.422 191.158 471.184 190.879 471.554
C 189.991 469.94 189.436 468.147 188.493 466.563
C 187.457 464.825 185.779 462.877 185.719 460.789
C 186.554 460.826 187.211 461.283 187.978 461.318 Z"
opacity="1" fill="rgb(27,50,96)" fill-rule="evenodd" />
<path d="
M 211.46 515.511
C 211.199 515.767 210.777 516.578 210.366 516.57
C 209.752 516.559 209.093 515.104 208.798 514.668
C 207.418 512.636 206.083 510.601 204.772 508.523
C 200.967 502.497 197.033 496.575 193.362 490.462
C 191.71 487.71 190.178 484.892 188.302 482.283
C 187.969 481.819 188.007 481.058 187.65 480.679
C 187.49 480.509 187.219 481.598 187.178 481.709
C 186.776 482.8 186.537 483.904 186.19 484.997
C 186.18 484.434 186.236 484.298 185.778 483.965
C 185.663 481.023 186.035 478.055 185.931 475.105
C 185.924 474.909 185.83 472.66 186.193 472.729
C 186.644 472.816 187.686 475.123 187.901 475.585
C 189.105 478.175 190.852 480.554 192.306 483.008
C 196.529 490.135 200.691 497.3 204.873 504.451
C 207.023 508.128 209.584 511.689 211.46 515.511 Z"
opacity="0.996" fill="rgb(52,74,116)" fill-rule="evenodd" />
<path d="
M 186.291 582.971
C 187.586 583.22 188.709 583.184 189.986 582.871
C 195.356 582.31 200.682 582.464 206.004 583.135
C 207.609 583.337 209.399 582.933 210.962 583.37
C 211.544 583.533 211.883 584.036 212.429 584.273
C 210.594 585.857 208.069 585.026 205.89 585.321
C 205.278 585.404 204.851 585.838 204.259 585.928
C 203.369 586.063 202.656 585.265 201.755 585.431
C 198.522 586.028 195.632 585.882 192.261 585.657
C 190.253 585.523 185.003 586.12 186.291 582.971 Z"
opacity="1" fill="rgb(211,217,218)" fill-rule="evenodd" />
<path d="
M 186.19 484.997
C 186.537 483.904 186.776 482.8 187.178 481.709
C 187.219 481.598 187.49 480.509 187.65 480.679
C 188.007 481.058 187.969 481.819 188.302 482.283
C 190.178 484.892 191.71 487.71 193.362 490.462
C 197.033 496.575 200.967 502.497 204.772 508.523
C 206.083 510.601 207.418 512.636 208.798 514.668
C 209.093 515.104 209.752 516.559 210.366 516.57
C 210.777 516.578 211.199 515.767 211.46 515.511
C 213.166 517.634 212.66 522.484 212.329 524.983
C 212.299 525.649 212.322 525.32 212.262 525.972
C 210.838 524.505 212.408 522.074 211.812 520.518
C 211.72 520.276 211.221 519.836 211.121 519.697
C 210.995 519.521 210.942 518.946 210.82 519.124
C 209.883 520.486 211.481 523.032 210.333 524.509
C 207.058 525.005 203.485 524.563 200.165 524.582
C 195.671 524.608 190.967 525.118 186.615 524.183
C 185.403 520.225 186.302 515.111 186.296 511.002
C 186.284 502.338 185.998 493.659 186.19 484.997 Z"
opacity="1" fill="rgb(26,44,83)" fill-rule="evenodd" />
<path d="
M 186.615 524.183
C 190.967 525.118 195.671 524.608 200.165 524.582
C 203.485 524.563 207.058 525.005 210.333 524.509
C 211.481 523.032 209.883 520.486 210.82 519.124
C 210.942 518.946 210.995 519.521 211.121 519.697
C 211.221 519.836 211.72 520.276 211.812 520.518
C 212.408 522.074 210.838 524.505 212.262 525.972
C 211.325 539.196 212.153 552.744 212.201 566.008
C 212.216 570.174 212.516 574.445 212.179 578.596
C 210.504 579.417 207.351 578.751 205.503 578.746
C 200.168 578.733 194.833 578.693 189.498 578.662
C 188.497 578.66 187.402 578.845 186.434 578.567
C 185.467 574.346 186.145 569.318 186.14 564.997
C 186.128 555.852 186.153 546.707 186.157 537.562
C 186.159 534.166 186.172 530.772 186.148 527.376
C 186.141 526.508 186.892 524.767 186.615 524.183 Z"
opacity="1" fill="rgb(12,20,50)" fill-rule="evenodd" />
<path d="
M 214.509 460.995
C 214.693 461.732 214.834 463.037 214.573 463.789
C 208.439 463.049 202.268 463.52 196.111 463.422
C 193.605 463.382 191.155 463.731 188.701 463.039
C 188.158 462.603 188.068 461.981 187.978 461.318
C 188.643 460.019 193.109 460.884 194.507 460.89
C 201.17 460.92 207.862 460.667 214.509 460.995 Z"
opacity="1" fill="rgb(104,125,155)" fill-rule="evenodd" />
<path d="
M 189.498 578.662
C 194.833 578.693 200.168 578.733 205.503 578.746
C 207.351 578.751 210.504 579.417 212.179 578.596
C 212.516 574.445 212.216 570.174 212.201 566.008
C 212.153 552.744 211.325 539.196 212.262 525.972
C 212.322 525.32 212.299 525.649 212.329 524.983
C 213.285 525.771 213.08 527.402 213.128 528.511
C 213.25 531.339 213.364 534.161 213.373 536.992
C 213.411 548.48 213.692 559.969 213.735 571.492
C 213.743 573.725 214.222 576.23 213.97 578.422
C 213.87 579.295 213.37 580.053 213.234 580.918
C 213.096 581.793 213.24 583.75 212.429 584.273
C 211.883 584.036 211.544 583.533 210.962 583.37
C 209.399 582.933 207.609 583.337 206.004 583.135
C 200.682 582.464 195.356 582.31 189.986 582.871
C 189.878 581.922 189.155 581.317 189.287 580.297
C 189.339 579.89 189.696 579.021 189.498 578.662 Z"
opacity="1" fill="rgb(199,211,207)" fill-rule="evenodd" />
<path d="
M 190.879 471.554
C 191.158 471.184 191.425 470.422 192.032 470.46
C 192.674 470.499 193.768 472.978 194.069 473.474
C 196.077 476.783 198.208 479.987 200.138 483.349
C 206.142 493.81 212.151 504.268 218.229 514.688
C 220.354 518.331 222.187 522.449 224.653 525.857
C 230.103 526.516 235.999 525.8 241.498 525.843
C 243.226 525.856 246.56 525.293 248.009 526.302
C 252.239 536.289 258.417 545.062 264.31 554.137
C 265.703 556.282 267.153 558.398 268.466 560.594
C 269.087 561.633 269.743 562.973 270.812 563.609
C 271.1 564.67 271.892 565.281 271.878 566.444
C 271.496 567.939 270.773 569.325 270.414 570.828
C 268.837 570.794 267.612 569.933 266.08 569.819
C 262.244 569.535 258.297 569.65 254.452 569.705
C 252.682 569.73 249.596 569.119 248.467 570.893
C 246.934 570.938 245.792 570.13 245.454 568.563
C 245.092 565.923 242.824 563.515 241.582 561.222
C 239.194 556.814 236.99 552.305 234.535 547.925
C 233.608 546.272 232.437 542.306 230.435 542.021
C 230.416 541.364 230.414 541.69 230.439 541.046
C 230.913 540.47 229.528 538.644 229.239 538.125
C 227.785 535.519 226.4 532.274 224.502 529.991
C 223.283 527.7 221.865 525.48 220.595 523.209
C 219.925 522.011 219.497 520.472 218.549 519.473
C 217.02 516.372 214.961 513.44 213.275 510.404
C 208.583 501.953 203.747 493.579 198.966 485.178
C 196.379 480.632 193.135 476.264 190.879 471.554 Z"
opacity="1" fill="rgb(11,20,53)" fill-rule="evenodd" />
<path d="
M 214.509 460.995
C 215.156 460.972 215.784 460.788 216.409 460.987
C 217.533 464.328 219.921 467.543 221.533 470.695
C 225.927 479.288 230.53 487.847 235.174 496.312
C 237.311 500.207 240.057 504.258 241.594 508.422
C 239.461 507.706 239.506 506.51 238.221 504.926
C 237.677 504.256 236.779 504.651 236.18 504.102
C 235.014 503.034 234.484 500.936 233.65 499.6
C 228.63 491.566 224.364 482.741 219.783 474.341
C 218.377 471.762 217.368 469.005 216.044 466.394
C 215.635 465.588 215.397 464.182 214.573 463.789
C 214.834 463.037 214.693 461.732 214.509 460.995 Z"
opacity="1" fill="rgb(35,59,101)" fill-rule="evenodd" />
<path d="
M 218.549 519.473
C 219.497 520.472 219.925 522.011 220.595 523.209
C 221.865 525.48 223.283 527.7 224.502 529.991
C 225.043 533.149 226.73 535.339 228.296 538.126
C 228.93 539.255 229.226 540.406 230.439 541.046
C 230.414 541.69 230.416 541.364 230.435 542.021
C 231.548 544.716 233.372 546.952 234.768 549.49
C 237.213 553.933 239.139 558.595 242.037 562.776
C 243.173 564.414 243.544 567.591 245.454 568.563
C 245.792 570.13 246.934 570.938 248.467 570.893
C 253.803 570.75 259.157 570.956 264.495 570.962
C 265.915 570.963 267.323 570.909 268.743 570.965
C 269.226 570.983 270.002 571.151 270.414 570.828
C 270.773 569.325 271.496 567.939 271.878 566.444
C 273.303 567.17 272.682 568.19 272.781 569.463
C 272.942 571.533 272.915 574.311 272.204 576.278
C 271.697 576.544 270.145 575.874 269.483 575.862
C 265.445 575.904 261.381 575.447 257.417 575.383
C 255.014 575.344 252.439 576.055 250.024 576.063
C 247.923 575.72 246.409 574.241 244.438 573.905
C 243.449 571.883 241.732 570.261 240.64 568.273
C 237.103 561.84 234.058 555.214 230.774 548.661
C 228.997 545.117 226.439 542.043 224.556 538.563
C 222.907 535.518 221.695 532.279 220.143 529.192
C 219.34 527.595 218.339 526.07 217.745 524.378
C 217.499 523.677 217.139 522.832 217.232 522.073
C 217.307 521.464 217.922 520.974 217.951 520.383
C 217.978 519.829 217.252 519.064 218.549 519.473 Z"
opacity="1" fill="rgb(194,197,198)" fill-rule="evenodd" />
<path d="
M 224.502 529.991
C 226.4 532.274 227.785 535.519 229.239 538.125
C 229.528 538.644 230.913 540.47 230.439 541.046
C 229.226 540.406 228.93 539.255 228.296 538.126
C 226.73 535.339 225.043 533.149 224.502 529.991 Z"
opacity="1" fill="rgb(103,118,141)" fill-rule="evenodd" />
<path d="
M 230.435 542.021
C 232.437 542.306 233.608 546.272 234.535 547.925
C 236.99 552.305 239.194 556.814 241.582 561.222
C 242.824 563.515 245.092 565.923 245.454 568.563
C 243.544 567.591 243.173 564.414 242.037 562.776
C 239.139 558.595 237.213 553.933 234.768 549.49
C 233.372 546.952 231.548 544.716 230.435 542.021 Z"
opacity="1" fill="rgb(75,87,119)" fill-rule="evenodd" />
<path d="
M 244.438 573.905
C 246.409 574.241 247.923 575.72 250.024 576.063
C 250.917 577.78 251.111 576.383 252.511 576.513
C 253.127 576.57 253.353 577.392 254.04 577.508
C 255.318 577.725 256.727 576.358 258.028 576.16
C 260.53 575.779 263.25 576.036 265.773 576.139
C 266.902 576.185 268.482 576.514 269.483 575.862
C 270.145 575.874 271.697 576.544 272.204 576.278
C 270.98 578.546 268.199 578.784 265.898 578.801
C 260.511 578.84 255.057 578.92 249.724 578.113
C 247.279 577.743 244.39 576.685 244.438 573.905 Z"
opacity="1" fill="rgb(213,222,220)" fill-rule="evenodd" />
<path d="
M 270.414 570.828
C 270.002 571.151 269.226 570.983 268.743 570.965
C 267.323 570.909 265.915 570.963 264.495 570.962
C 259.157 570.956 253.803 570.75 248.467 570.893
C 249.596 569.119 252.682 569.73 254.452 569.705
C 258.297 569.65 262.244 569.535 266.08 569.819
C 267.612 569.933 268.837 570.794 270.414 570.828 Z"
opacity="1" fill="rgb(6,4,10)" fill-rule="evenodd" />
<path d="
M 250.024 576.063
C 252.439 576.055 255.014 575.344 257.417 575.383
C 261.381 575.447 265.445 575.904 269.483 575.862
C 268.482 576.514 266.902 576.185 265.773 576.139
C 263.25 576.036 260.53 575.779 258.028 576.16
C 256.727 576.358 255.318 577.725 254.04 577.508
C 253.353 577.392 253.127 576.57 252.511 576.513
C 251.111 576.383 250.917 577.78 250.024 576.063 Z"
opacity="0.996" fill="rgb(210,207,213)" fill-rule="evenodd" />
<path d="
M 264.618 525.139
C 267.019 524.527 269.588 524.82 272.052 524.815
C 278.232 524.804 284.737 525.507 290.878 524.849
C 292.174 523.601 292.753 521.137 293.657 519.562
C 295.934 515.594 298.133 511.573 300.46 507.633
C 301.671 505.582 302.727 503.415 304.523 501.793
C 305.474 501.724 305.782 505.981 305.901 506.88
C 306.432 510.868 305.819 515.454 305.724 519.489
C 305.688 521.052 305.265 523.098 305.824 524.575
C 311.396 524.027 317.386 524.594 323.003 524.604
C 324.896 524.607 327.459 525.098 329.268 524.594
C 329.445 524.386 328.878 522.041 328.854 521.585
C 328.693 518.57 328.732 515.52 328.737 512.5
C 328.754 502.622 329.26 492.702 329.182 482.85
C 329.155 479.398 329.2 475.946 329.176 472.494
C 329.171 471.69 328.755 469.5 329.293 468.865
C 329.893 468.157 330.565 469.054 330.883 469.499
C 330.878 488.583 329.973 507.925 331.04 526.98
C 330.805 538.49 330.697 549.989 330.748 561.514
C 330.772 567.014 330.033 573.112 331.049 578.525
C 322.892 578.434 314.664 578.459 306.5 578.585
C 305.82 578.589 305.135 578.615 304.462 578.524
C 303.925 577.023 304.17 575.088 304.164 573.505
C 304.153 570.502 304.157 567.499 304.169 564.496
C 304.208 554.501 304.159 544.503 304.281 534.509
C 304.322 531.141 304.299 527.751 304.65 524.4
C 304.79 523.058 305.219 520.646 304.367 519.511
C 303.505 516.473 304.116 512.207 304.38 509.074
C 304.446 508.286 305.01 505.809 304.033 505.399
C 303.615 505.877 303.347 506.281 303.163 506.894
C 301.915 510.237 299.594 513.081 298.182 516.318
C 295.971 518.857 294.707 522.769 293.068 525.716
C 288.678 533.609 284.677 541.753 280.153 549.567
C 278.601 552.248 277.156 554.988 275.642 557.689
C 275.521 557.904 274.385 560.144 274.089 559.969
C 273.942 559.883 273.714 559.138 273.592 558.968
C 270.4 553.468 267.22 548.013 264.184 542.419
C 262.726 539.734 260.852 536.901 259.871 534.009
C 259.933 532.775 260.948 531.716 261.522 530.66
C 262.519 528.825 263.388 526.831 264.618 525.139 Z"
opacity="1" fill="rgb(13,23,55)" fill-rule="evenodd" />
<path d="
M 281.538 494.257
C 281.85 495.319 282.946 494.759 283.491 494.236
C 284.975 492.812 285.851 490.792 287.108 489.18
C 290.817 484.423 293.598 478.644 296.464 473.343
C 297.421 471.572 298.535 469.694 298.625 467.621
C 298.661 466.785 297.716 464.699 296.808 465.894
C 297.647 464.124 298.868 460.454 301.004 460.743
C 301.185 461.428 301.007 461.747 300.771 462.398
C 300.709 462.568 300.159 463.481 300.2 463.577
C 300.328 463.878 301.853 463.667 302.071 463.652
C 303.712 463.54 305.37 463.433 307.014 463.384
C 314.141 463.171 321.433 463.994 328.505 463.494
C 329.691 463.98 329.348 463.116 328.97 462.416
C 328.942 461.539 328.944 462.022 328.986 460.965
C 329.494 460.965 330.635 460.542 330.861 461.023
C 330.897 463.846 330.845 466.674 330.883 469.499
C 330.565 469.054 329.893 468.157 329.293 468.865
C 328.755 469.5 329.171 471.69 329.176 472.494
C 329.2 475.946 329.155 479.398 329.182 482.85
C 329.26 492.702 328.754 502.622 328.737 512.5
C 328.732 515.52 328.693 518.57 328.854 521.585
C 328.878 522.041 329.445 524.386 329.268 524.594
C 327.459 525.098 324.896 524.607 323.003 524.604
C 317.386 524.594 311.396 524.027 305.824 524.575
C 305.265 523.098 305.688 521.052 305.724 519.489
C 305.819 515.454 306.432 510.868 305.901 506.88
C 305.782 505.981 305.474 501.724 304.523 501.793
C 302.727 503.415 301.671 505.582 300.46 507.633
C 298.133 511.573 295.934 515.594 293.657 519.562
C 292.753 521.137 292.174 523.601 290.878 524.849
C 284.737 525.507 278.232 524.804 272.052 524.815
C 269.588 524.82 267.019 524.527 264.618 525.139
C 268.552 518.299 272.21 511.249 275.959 504.299
C 277.669 501.129 279.217 497.002 281.538 494.257 Z"
opacity="1" fill="rgb(34,66,114)" fill-rule="evenodd" />
<path d="
M 273.592 558.968
C 273.714 559.138 273.942 559.883 274.089 559.969
C 274.385 560.144 275.521 557.904 275.642 557.689
C 277.156 554.988 278.601 552.248 280.153 549.567
C 284.677 541.753 288.678 533.609 293.068 525.716
C 294.707 522.769 295.971 518.857 298.182 516.318
C 299.257 516.373 298.613 517.696 299.311 518.264
C 299.648 518.537 300.177 518.548 300.555 518.797
C 300.487 519.799 299.367 520.795 298.872 521.66
C 297.963 523.246 297.256 525.11 296.586 526.817
C 294.927 531.047 292.367 534.987 290.152 538.947
C 287.411 543.848 284.987 548.996 281.893 553.679
C 280.357 556.004 279.297 558.497 277.606 560.739
C 276.882 561.698 276.195 562.659 274.968 562.945
C 273.631 562.574 272.188 559.894 273.592 558.968 Z"
opacity="1" fill="rgb(206,209,211)" fill-rule="evenodd" />
<path d="
M 296.808 465.894
C 297.716 464.699 298.661 466.785 298.625 467.621
C 298.535 469.694 297.421 471.572 296.464 473.343
C 293.598 478.644 290.817 484.423 287.108 489.18
C 285.851 490.792 284.975 492.812 283.491 494.236
C 282.946 494.759 281.85 495.319 281.538 494.257
C 282.766 490.625 285.317 487.115 287.145 483.742
C 290.368 477.796 293.626 471.863 296.808 465.894 Z"
opacity="1" fill="rgb(24,51,89)" fill-rule="evenodd" />
<path d="
M 300.771 462.398
C 301.783 462.167 301.94 461.861 302.497 461.014
C 307.114 460.425 312.003 460.87 316.659 460.906
C 320.751 460.939 324.913 460.502 328.986 460.965
C 328.944 462.022 328.942 461.539 328.97 462.416
C 328.538 462.803 328.543 462.911 328.505 463.494
C 321.433 463.994 314.141 463.171 307.014 463.384
C 305.37 463.433 303.712 463.54 302.071 463.652
C 301.853 463.667 300.328 463.878 300.2 463.577
C 300.159 463.481 300.709 462.568 300.771 462.398 Z"
opacity="1" fill="rgb(106,131,154)" fill-rule="evenodd" />
<path d="
M 301.004 460.743
C 301.523 460.785 301.989 460.922 302.497 461.014
C 301.94 461.861 301.783 462.167 300.771 462.398
C 301.007 461.747 301.185 461.428 301.004 460.743 Z"
opacity="0.996" fill="rgb(95,119,140)" fill-rule="evenodd" />
<path d="
M 304.367 519.511
C 305.219 520.646 304.79 523.058 304.65 524.4
C 304.299 527.751 304.322 531.141 304.281 534.509
C 304.159 544.503 304.208 554.501 304.169 564.496
C 304.157 567.499 304.153 570.502 304.164 573.505
C 304.17 575.088 303.925 577.023 304.462 578.524
C 305.135 578.615 305.82 578.589 306.5 578.585
C 307.706 580.123 304.995 581.639 305.453 583.203
C 306.713 584.335 310.078 583.32 311.537 583.19
C 314.793 582.898 317.822 582.446 321.146 582.756
C 324.299 583.05 328.244 584.164 331.323 582.916
C 331.452 583.588 331.565 584.06 331.373 584.721
C 330.033 585.73 326.224 585.75 324.545 585.731
C 321.828 585.699 319.116 586.146 316.423 586.105
C 314.432 586.075 312.471 585.763 310.471 585.814
C 308.721 585.858 304.822 586.508 304.004 584.392
C 303.689 583.576 304.033 582.802 303.909 581.982
C 303.721 580.737 302.385 579.961 302.193 578.522
C 301.958 576.754 302.369 574.945 302.459 573.178
C 302.622 569.962 302.633 566.725 302.642 563.505
C 302.67 554.026 302.098 544.401 302.695 534.939
C 302.795 533.364 303.919 533.008 304.126 531.573
C 304.508 528.923 303.704 526.476 303.723 523.888
C 303.735 522.363 304.32 520.982 304.367 519.511 Z"
opacity="1" fill="rgb(206,208,212)" fill-rule="evenodd" />
<path d="
M 306.5 578.585
C 314.664 578.459 322.892 578.434 331.049 578.525
C 331.97 578.803 331.884 580.674 331.808 581.422
C 331.722 581.974 331.537 582.405 331.323 582.916
C 328.244 584.164 324.299 583.05 321.146 582.756
C 317.822 582.446 314.793 582.898 311.537 583.19
C 310.078 583.32 306.713 584.335 305.453 583.203
C 304.995 581.639 307.706 580.123 306.5 578.585 Z"
opacity="1" fill="rgb(181,188,192)" fill-rule="evenodd" />
<path d="
M 328.97 462.416
C 329.348 463.116 329.691 463.98 328.505 463.494
C 328.543 462.911 328.538 462.803 328.97 462.416 Z"
opacity="1" fill="rgb(49,59,99)" fill-rule="evenodd" />
<path d="
M 344.616 558.484
C 346.723 559.826 345.481 563.576 345.362 565.569
C 345.303 566.555 345.619 567.484 345.613 568.466
C 345.401 571.583 344.714 575.016 345.368 578.125
C 346.556 579.458 350.36 578.71 351.999 578.706
C 358.156 578.687 364.335 578.902 370.489 578.693
C 370.993 578.647 373.137 578.902 372.135 578.077
C 372.087 577.885 372.038 577.693 371.99 577.5
C 371.814 574.877 372.221 572.034 372.196 569.365
C 372.129 562.401 372 555.476 372.313 548.515
C 372.273 547.635 372.072 546.678 372.765 546
C 372.955 555.222 373.122 564.441 373.262 573.666
C 373.301 576.251 373.614 578.402 373.34 581.022
C 373.231 582.064 373.335 583.333 372.716 584.223
C 372.113 584.268 371.522 584.193 370.922 584.142
C 363.047 582.934 355.34 583.767 347.375 583.824
C 346.648 583.808 345.942 583.838 345.274 583.529
C 344.934 582.61 344.865 581.586 344.49 580.69
C 344.09 579.731 343.272 578.995 343.197 577.911
C 343.115 576.738 343.881 576.057 344.144 575.01
C 344.619 573.113 344.795 570.972 344.839 569.021
C 344.919 565.411 343.781 562.145 344.616 558.484 Z"
opacity="1" fill="rgb(157,163,173)" fill-rule="evenodd" />
<path d="
M 344.851 487.024
C 344.987 487.064 345.124 487.104 345.26 487.144
C 346.123 488.026 348.802 487.456 349.993 487.443
C 354.492 487.396 358.992 487.43 363.491 487.401
C 381.157 487.286 398.824 487.329 416.49 487.335
C 423.867 487.338 433.963 485.438 439.213 492.009
C 441.341 494.673 441.885 497.681 441.911 501.01
C 441.92 502.021 442.307 503.782 441.278 504.408
C 441.328 502.749 440.603 502.254 439.877 500.979
C 438.319 498.244 436.978 496.247 433.499 495.784
C 432.831 494.708 430.811 493.989 429.607 493.865
C 428.008 493.849 426.436 494.728 424.899 495.154
C 423.452 495.555 421.422 495.619 419.932 495.722
C 400.471 496.304 380.944 495.815 361.475 495.829
C 357.803 495.832 354.141 495.884 350.47 495.737
C 349.13 495.683 347.305 495.869 346.152 495.065
C 344.142 493.662 344.413 489.071 344.851 487.024 Z"
opacity="1" fill="rgb(196,197,200)" fill-rule="evenodd" />
<path d="
M 346.959 461.075
C 346.843 462.114 346.905 462.858 347.543 463.688
C 346.268 464.196 346.553 467.364 346.622 468.484
C 346.861 472.326 346.786 476.178 346.786 480.024
C 346.786 481.544 346.344 483.764 346.964 485.143
C 352.391 484.707 358.05 485.233 363.506 485.231
C 375.173 485.229 386.839 485.255 398.506 485.25
C 405.81 485.246 413.113 485.285 420.417 485.333
C 424.848 485.362 429.661 485.021 434.025 485.862
C 440.928 487.193 444.997 494.841 443.704 501.473
C 443.264 503.732 441.936 505.533 440.901 507.532
C 439.749 509.76 438.096 512.811 435.676 514.012
C 432.842 515.419 430.127 515.073 426.967 515.098
C 421.68 515.141 416.478 514.668 411.22 514.627
C 401.226 514.548 391.219 514.828 381.22 514.747
C 379.469 514.732 377.734 515.087 375.992 515.02
C 369.544 514.772 363.091 514.987 356.631 515.114
C 353.535 515.175 349.925 514.712 346.915 515.459
C 346.686 514.546 346.85 513.198 346.499 512.418
C 369.481 512.795 392.51 512.368 415.498 512.343
C 419.418 512.339 423.337 512.385 427.256 512.425
C 429.282 512.446 431.858 512.776 433.781 512.017
C 437.464 510.563 439.503 507.787 441.278 504.408
C 442.307 503.782 441.92 502.021 441.911 501.01
C 441.885 497.681 441.341 494.673 439.213 492.009
C 433.963 485.438 423.867 487.338 416.49 487.335
C 398.824 487.329 381.157 487.286 363.491 487.401
C 358.992 487.43 354.492 487.396 349.993 487.443
C 348.802 487.456 346.123 488.026 345.26 487.144
C 345.038 485.49 345.42 483.576 344.868 481.99
C 344.98 475.06 345.535 467.696 344.887 460.805
C 345.622 460.813 346.253 460.868 346.959 461.075 Z"
opacity="1" fill="rgb(83,105,123)" fill-rule="evenodd" />
<path d="
M 344.868 481.99
C 345.42 483.576 345.038 485.49 345.26 487.144
C 345.124 487.104 344.987 487.064 344.851 487.024
C 344.87 485.346 344.829 483.67 344.868 481.99 Z"
opacity="1" fill="rgb(94,118,121)" fill-rule="evenodd" />
<path d="
M 346.499 512.418
C 346.85 513.198 346.686 514.546 346.915 515.459
C 346.828 517.751 345.952 521.258 346.853 523.415
C 347.452 534.229 346.371 545.285 346.189 556.093
C 346.14 559.052 346.015 562.008 345.973 564.967
C 345.957 566.064 346.233 567.506 345.613 568.466
C 345.619 567.484 345.303 566.555 345.362 565.569
C 345.481 563.576 346.723 559.826 344.616 558.484
C 344.741 543.222 344.845 527.949 344.678 512.691
C 344.978 512.19 345.917 512.429 346.499 512.418 Z"
opacity="1" fill="rgb(12,37,72)" fill-rule="evenodd" />
<path d="
M 345.613 568.466
C 346.233 567.506 345.957 566.064 345.973 564.967
C 346.015 562.008 346.14 559.052 346.189 556.093
C 346.371 545.285 347.452 534.229 346.853 523.415
C 348.111 522.897 349.641 522.949 350.995 522.9
C 359.489 523.223 368.072 522.48 376.565 522.285
C 388.905 522.002 401.26 522.061 413.593 521.648
C 428.692 521.143 443.847 520.252 458.964 520.714
C 459.685 520.739 460.21 520.96 460.695 520.336
C 459.667 522.303 458.01 524.097 456.556 525.761
C 444.873 539.138 427.008 537.414 411.003 537.422
C 405.723 537.425 400.445 537.526 395.169 537.552
C 389.475 537.58 383.781 537.544 378.088 537.543
C 376.192 537.542 373.046 536.871 371.627 538.394
C 370.537 540.636 370.911 543.472 371.154 545.89
C 371.258 546.928 371.3 548.169 372.313 548.515
C 372 555.476 372.129 562.401 372.196 569.365
C 372.221 572.034 371.814 574.877 371.99 577.5
C 371.266 577.754 370.294 577.305 369.521 577.244
C 367.535 577.089 365.496 577.18 363.505 577.18
C 358.816 577.18 354.059 576.926 349.377 577.146
C 347.906 577.215 346.793 578.071 345.368 578.125
C 344.714 575.016 345.401 571.583 345.613 568.466 Z"
opacity="1" fill="rgb(62,102,152)" fill-rule="evenodd" />
<path d="
M 345.368 578.125
C 346.793 578.071 347.906 577.215 349.377 577.146
C 354.059 576.926 358.816 577.18 363.505 577.18
C 365.496 577.18 367.535 577.089 369.521 577.244
C 370.294 577.305 371.266 577.754 371.99 577.5
C 372.038 577.693 372.087 577.885 372.135 578.077
C 371.799 578.681 371.104 578.389 370.489 578.693
C 364.335 578.902 358.156 578.687 351.999 578.706
C 350.36 578.71 346.556 579.458 345.368 578.125 Z"
opacity="0.996" fill="rgb(0,0,12)" fill-rule="evenodd" />
<path d="
M 345.274 583.529
C 345.942 583.838 346.648 583.808 347.375 583.824
C 355.34 583.767 363.047 582.934 370.922 584.142
C 369.752 585.815 366.939 585.698 365.089 585.87
C 363.703 585.999 362.651 585.527 361.325 585.345
C 360.266 585.2 359.334 585.897 358.282 585.946
C 356.641 586.023 355.099 585.28 353.459 585.347
C 350.889 585.452 347.876 586.417 345.411 585.314
C 345.15 584.722 345.328 584.15 345.274 583.529 Z"
opacity="1" fill="rgb(216,220,221)" fill-rule="evenodd" />
<path d="
M 347.543 463.688
C 354.662 464.072 361.876 463.626 369.006 463.614
C 383.007 463.59 397.012 463.644 411.012 463.733
C 420.559 463.793 431.125 462.528 440.422 465.109
C 444.219 466.163 447.954 467.962 451.183 470.2
C 454.618 472.581 457.069 475.353 459.755 478.51
C 461.339 480.373 462.854 481.89 463.999 484.106
C 465.1 486.235 465.42 488.705 465.822 491.033
C 467.616 501.425 465.035 510.936 460.695 520.336
C 460.21 520.96 459.685 520.739 458.964 520.714
C 459.097 518.172 454.713 518.913 453.237 518.832
C 446.649 518.473 440.142 519.41 433.598 518.749
C 427.975 518.181 422.085 518.178 416.471 518.708
C 414.304 518.912 412.22 519.557 410.034 519.637
C 397.673 520.09 385.238 519.825 372.907 520.54
C 367.081 520.877 360.983 519.838 355.321 521.267
C 354.267 521.533 353.132 521.089 352.111 521.586
C 351.504 521.881 351.487 522.52 350.995 522.9
C 349.641 522.949 348.111 522.897 346.853 523.415
C 345.952 521.258 346.828 517.751 346.915 515.459
C 349.925 514.712 353.535 515.175 356.631 515.114
C 363.091 514.987 369.544 514.772 375.992 515.02
C 377.734 515.087 379.469 514.732 381.22 514.747
C 391.219 514.828 401.226 514.548 411.22 514.627
C 416.478 514.668 421.68 515.141 426.967 515.098
C 430.127 515.073 432.842 515.419 435.676 514.012
C 438.096 512.811 439.749 509.76 440.901 507.532
C 441.936 505.533 443.264 503.732 443.704 501.473
C 444.997 494.841 440.928 487.193 434.025 485.862
C 429.661 485.021 424.848 485.362 420.417 485.333
C 413.113 485.285 405.81 485.246 398.506 485.25
C 386.839 485.255 375.173 485.229 363.506 485.231
C 358.05 485.233 352.391 484.707 346.964 485.143
C 346.344 483.764 346.786 481.544 346.786 480.024
C 346.786 476.178 346.861 472.326 346.622 468.484
C 346.553 467.364 346.268 464.196 347.543 463.688 Z"
opacity="1" fill="rgb(84,104,130)" fill-rule="evenodd" />
<path d="
M 346.959 461.075
C 351.014 460.46 355.386 460.946 359.502 460.949
C 367.501 460.954 375.501 460.949 383.501 460.939
C 393.168 460.928 402.836 460.893 412.504 460.849
C 420.028 460.814 427.844 460.289 435.314 461.375
C 446.232 462.962 456.898 468.924 462.552 478.606
C 465.118 483.001 466.523 487.335 467.719 492.238
C 469.024 497.587 468.612 503.507 467.819 508.894
C 467.489 511.394 466.196 513.668 465.343 516.008
C 462.512 523.679 457.525 528.691 451.264 533.651
C 446.182 536.564 440.841 538.909 434.982 539.693
C 429.744 540.393 424.27 539.928 418.998 539.935
C 410.998 539.947 402.994 539.964 394.995 539.867
C 389.661 539.802 384.325 539.783 378.991 539.796
C 377.094 539.801 374.232 539.193 372.555 540.18
C 372.381 542.194 372.681 543.999 372.765 546
C 372.072 546.678 372.273 547.635 372.313 548.515
C 371.3 548.169 371.258 546.928 371.154 545.89
C 370.911 543.472 370.537 540.636 371.627 538.394
C 373.046 536.871 376.192 537.542 378.088 537.543
C 383.781 537.544 389.475 537.58 395.169 537.552
C 400.445 537.526 405.723 537.425 411.003 537.422
C 427.008 537.414 444.873 539.138 456.556 525.761
C 458.01 524.097 459.667 522.303 460.695 520.336
C 465.035 510.936 467.616 501.425 465.822 491.033
C 465.42 488.705 465.1 486.235 463.999 484.106
C 462.854 481.89 461.339 480.373 459.755 478.51
C 457.069 475.353 454.618 472.581 451.183 470.2
C 447.954 467.962 444.219 466.163 440.422 465.109
C 431.125 462.528 420.559 463.793 411.012 463.733
C 397.012 463.644 383.007 463.59 369.006 463.614
C 361.876 463.626 354.662 464.072 347.543 463.688
C 346.905 462.858 346.843 462.114 346.959 461.075 Z"
opacity="1" fill="rgb(78,93,111)" fill-rule="evenodd" />
<path d="
M 458.964 520.714
C 443.847 520.252 428.692 521.143 413.593 521.648
C 401.26 522.061 388.905 522.002 376.565 522.285
C 368.072 522.48 359.489 523.223 350.995 522.9
C 351.487 522.52 351.504 521.881 352.111 521.586
C 353.132 521.089 354.267 521.533 355.321 521.267
C 360.983 519.838 367.081 520.877 372.907 520.54
C 385.238 519.825 397.673 520.09 410.034 519.637
C 412.22 519.557 414.304 518.912 416.471 518.708
C 422.085 518.178 427.975 518.181 433.598 518.749
C 440.142 519.41 446.649 518.473 453.237 518.832
C 454.713 518.913 459.097 518.172 458.964 520.714 Z"
opacity="1" fill="rgb(152,192,220)" fill-rule="evenodd" />
<path d="
M 372.135 578.077
C 373.137 578.902 370.993 578.647 370.489 578.693
C 371.104 578.389 371.799 578.681 372.135 578.077 Z"
opacity="1" fill="rgb(62,102,152)" fill-rule="evenodd" />
<path d="
M 451.264 533.651
C 457.525 528.691 462.512 523.679 465.343 516.008
C 466.196 513.668 467.489 511.394 467.819 508.894
C 468.613 510.464 467.51 512.639 467.467 514.297
C 467.436 515.517 467.845 516.712 467.627 517.928
C 467.177 520.436 465.891 523.469 464.502 525.596
C 463.914 526.497 462.943 527.144 462.402 528.057
C 461.906 528.897 462.152 529.968 461.675 530.828
C 461.333 531.444 460.658 531.775 460.207 532.295
C 458.948 533.746 457.79 536.358 455.723 536.903
C 454.927 537.113 454.967 535.671 454.334 535.478
C 453.405 535.196 449.704 539.265 450.453 536.183
C 450.534 535.735 450.616 535.288 450.7 534.827
C 450.802 534.355 450.941 533.999 451.264 533.651 Z"
opacity="1" fill="rgb(210,209,213)" fill-rule="evenodd" />
<path d="
M 473.304 511.433
C 474.296 512.476 473.727 514.353 473.503 515.627
C 472.968 518.668 473.375 521.571 473.835 524.543
C 474.247 531.239 475.017 537.715 477.539 544.009
C 484.333 560.962 498.266 573.653 516.348 577.361
C 521.683 578.455 527.085 578.275 532.496 578.278
C 538.996 578.281 545.495 578.305 551.995 578.3
C 566.437 578.289 580.985 578.835 595.414 578.294
C 595.97 577.466 595.536 576.427 595.451 575.516
C 595.876 573.047 595.641 570.482 595.652 567.983
C 595.671 563.65 595.657 559.319 595.632 554.986
C 595.597 548.621 595.89 542.194 595.691 535.841
C 595.61 533.255 595.153 530.754 595.18 528.122
C 595.218 524.385 595.818 520.671 595.884 516.951
C 596.83 518.598 596.636 521.163 596.668 523.005
C 596.732 526.784 596.916 530.568 596.771 534.346
C 596.55 540.095 597.278 545.742 597.44 551.481
C 597.604 557.28 597.213 563.165 597.228 568.982
C 597.239 573.033 597.542 576.855 597.25 580.899
C 597.156 582.199 597.608 584.676 595.972 584.768
C 595.402 584.008 593.849 584.054 592.978 583.745
C 589.516 582.515 584.621 583.153 580.969 583.135
C 572.885 583.096 564.735 583.338 556.61 583.198
C 549.339 583.072 542.07 582.679 534.796 582.922
C 530.646 583.061 526.479 583.549 522.327 583.505
C 521.145 583.493 518.639 582.784 517.871 583.974
C 516.923 583.836 516.265 583.09 515.336 582.954
C 514.254 582.795 512.932 583.898 512.009 582.851
C 511.821 582.637 514.253 582.155 513.658 581.642
C 513.164 581.217 512.374 581.588 511.803 581.498
C 510.882 581.354 510.272 580.385 509.28 580.498
C 508.549 580.581 508.284 581.245 507.488 580.843
C 506.609 580.398 506.205 579.401 505.362 578.944
C 504.954 578.722 504.26 578.395 503.777 578.487
C 503.501 578.54 503.282 578.95 502.971 578.832
C 502.259 578.561 501.547 577.517 500.844 577.089
C 498.567 575.704 496.254 574.335 494.105 572.755
C 489.889 569.656 486.662 565.757 483.541 561.614
C 480.087 557.03 476.74 551.904 475.042 546.363
C 473.747 542.137 473.751 537.79 473.226 533.466
C 472.538 527.809 472.241 521.597 472.587 515.835
C 472.677 514.336 473.217 512.919 473.304 511.433 Z"
opacity="1" fill="rgb(188,193,196)" fill-rule="evenodd" />
<path d="
M 595.526 460.754
C 594.912 462.003 592.413 463.513 590.96 463.8
C 585.431 464.289 579.578 463.674 574.013 463.678
C 562.513 463.687 551.014 463.764 539.514 463.711
C 533.095 463.681 526.378 463.155 519.994 463.928
C 508.051 465.376 497.59 471.577 489.552 480.339
C 486.803 483.249 484.823 486.761 482.664 490.095
C 481.253 492.275 479.419 493.525 478.433 496.076
C 475.463 503.765 474.553 512.262 474.842 520.472
C 477.081 520.234 479.649 520.61 481.957 520.57
C 487.319 520.476 492.669 520.226 498.033 520.442
C 498.99 521.066 497.664 521.204 497.576 521.652
C 498.181 525.07 498.605 528.589 499.3 532.002
C 498.536 532.379 498.823 533.309 498.98 534.002
C 499.351 535.647 500.232 537.037 500.848 538.585
C 502.111 541.185 504.079 543.504 506.204 545.439
C 509.936 548.836 514.732 551.814 519.633 553.168
C 524.489 554.508 529.522 554.174 534.5 554.121
C 540.165 554.06 545.83 554.148 551.495 554.116
C 555.828 554.092 560.161 554.11 564.495 554.074
C 566.747 554.055 569.109 554.429 571.33 553.987
C 572.27 552.979 570.444 550.312 570.407 549.055
C 570.26 544.151 571.116 539.358 571.512 534.512
C 571.39 533.715 571.429 533.031 570.988 532.332
C 569.212 530.976 565.2 531.477 563.001 531.479
C 556.167 531.486 549.333 531.425 542.5 531.403
C 540.47 531.397 538.439 531.467 536.41 531.449
C 535.454 531.44 534.573 531.551 533.85 530.844
C 533.375 529.939 532.521 528.832 532.077 530.442
C 532.471 525.519 531.224 520.229 532.168 515.496
C 532.408 514.298 531.627 511.27 533.388 510.92
C 533.424 511.445 533.54 511.943 533.621 512.464
C 533.53 514.174 533.468 515.957 533.236 517.651
C 534.288 518.222 536.297 517.781 537.498 517.773
C 541.166 517.747 544.833 517.74 548.501 517.73
C 559.165 517.702 569.833 517.662 580.497 517.55
C 583.502 517.518 586.501 517.572 589.505 517.61
C 590.774 517.625 592.386 517.955 593.605 517.575
C 593.92 515.765 593.625 513.656 593.471 511.831
C 593.556 510.592 594.332 510.164 595.038 509.261
C 596.163 509.165 595.79 510.216 595.797 511.066
C 595.814 513.026 595.896 514.99 595.884 516.951
C 595.818 520.671 595.218 524.385 595.18 528.122
C 595.153 530.754 595.61 533.255 595.691 535.841
C 595.89 542.194 595.597 548.621 595.632 554.986
C 595.657 559.319 595.671 563.65 595.652 567.983
C 595.641 570.482 595.876 573.047 595.451 575.516
C 592.977 576.761 589.13 576.209 586.279 576.068
C 580.487 575.781 574.704 575.83 568.903 575.876
C 559.437 575.951 549.97 575.852 540.504 575.873
C 533.765 575.888 526.786 576.382 520.083 575.574
C 510.377 574.403 501.833 570.398 494.229 564.374
C 486.477 558.235 480.956 549.391 477.952 540.015
C 476.679 536.045 475.988 531.875 474.75 527.926
C 474.469 527.031 475.026 524.328 473.835 524.543
C 473.375 521.571 472.968 518.668 473.503 515.627
C 473.727 514.353 474.296 512.476 473.304 511.433
C 473.632 505.69 475.461 499.782 477.468 494.432
C 483.756 477.675 498.906 464.865 516.535 461.644
C 526.179 459.883 536.737 460.949 546.502 460.923
C 562.843 460.879 579.188 461.009 595.526 460.754 Z"
opacity="1" fill="rgb(58,60,66)" fill-rule="evenodd" />
<path d="
M 473.835 524.543
C 475.026 524.328 474.469 527.031 474.75 527.926
C 475.988 531.875 476.679 536.045 477.952 540.015
C 480.956 549.391 486.477 558.235 494.229 564.374
C 501.833 570.398 510.377 574.403 520.083 575.574
C 526.786 576.382 533.765 575.888 540.504 575.873
C 549.97 575.852 559.437 575.951 568.903 575.876
C 574.704 575.83 580.487 575.781 586.279 576.068
C 589.13 576.209 592.977 576.761 595.451 575.516
C 595.536 576.427 595.97 577.466 595.414 578.294
C 580.985 578.835 566.437 578.289 551.995 578.3
C 545.495 578.305 538.996 578.281 532.496 578.278
C 527.085 578.275 521.683 578.455 516.348 577.361
C 498.266 573.653 484.333 560.962 477.539 544.009
C 475.017 537.715 474.247 531.239 473.835 524.543 Z"
opacity="1" fill="rgb(17,26,26)" fill-rule="evenodd" />
<path d="
M 590.96 463.8
C 589.649 464.926 588.646 467.728 587.697 469.25
C 584.393 474.555 581.281 480.342 577.231 485.112
C 572.927 485.946 567.885 485.155 563.504 485.162
C 553.836 485.179 544.169 485.129 534.501 485.24
C 526.582 485.332 519.369 485.319 512.407 489.69
C 505.626 493.947 500.711 500.945 498.766 508.683
C 498.091 511.368 497.781 514.605 497.903 517.372
C 497.932 518.019 498.598 520.164 498.033 520.442
C 492.669 520.226 487.319 520.476 481.957 520.57
C 479.649 520.61 477.081 520.234 474.842 520.472
C 474.553 512.262 475.463 503.765 478.433 496.076
C 479.419 493.525 481.253 492.275 482.664 490.095
C 484.823 486.761 486.803 483.249 489.552 480.339
C 497.59 471.577 508.051 465.376 519.994 463.928
C 526.378 463.155 533.095 463.681 539.514 463.711
C 551.014 463.764 562.513 463.687 574.013 463.678
C 579.578 463.674 585.431 464.289 590.96 463.8 Z"
opacity="1" fill="rgb(101,104,112)" fill-rule="evenodd" />
<path d="
M 498.033 520.442
C 498.598 520.164 497.932 518.019 497.903 517.372
C 497.781 514.605 498.091 511.368 498.766 508.683
C 500.711 500.945 505.626 493.947 512.407 489.69
C 519.369 485.319 526.582 485.332 534.501 485.24
C 544.169 485.129 553.836 485.179 563.504 485.162
C 567.885 485.155 572.927 485.946 577.231 485.112
C 581.281 480.342 584.393 474.555 587.697 469.25
C 588.646 467.728 589.649 464.926 590.96 463.8
C 592.413 463.513 594.912 462.003 595.526 460.754
C 597.369 460.865 595.544 462.303 595.174 463.329
C 593.297 463.749 591.577 467.994 590.674 469.573
C 587.169 475.695 581.909 481.006 578.747 487.296
C 577.328 488.136 574.493 487.649 572.888 487.634
C 568.093 487.589 563.3 487.616 558.505 487.613
C 551.504 487.61 544.503 487.588 537.502 487.605
C 533.107 487.616 528.637 487.203 524.278 487.888
C 516.25 489.149 509.002 494.163 504.805 501.096
C 503.413 503.394 502.184 505.704 501.432 508.298
C 500.685 510.869 499.918 513.689 499.866 516.378
C 499.839 517.761 500.223 519.107 500.242 520.494
C 500.214 524.309 500.635 528.085 501.729 531.75
C 502.528 534.424 503.68 536.983 505.163 539.346
C 508.725 545.02 515.01 549.699 521.649 551.133
C 525.271 551.915 528.983 551.72 532.665 551.707
C 537.611 551.69 542.558 551.687 547.504 551.679
C 552.503 551.67 557.502 551.665 562.502 551.652
C 564.834 551.646 567.456 552.019 569.741 551.539
C 570.162 549.915 569.137 547.461 569.112 545.688
C 569.061 542.054 569.576 537.98 570.264 534.43
C 570.798 534.21 571.149 533.992 571.512 534.512
C 571.116 539.358 570.26 544.151 570.407 549.055
C 570.444 550.312 572.27 552.979 571.33 553.987
C 569.109 554.429 566.747 554.055 564.495 554.074
C 560.161 554.11 555.828 554.092 551.495 554.116
C 545.83 554.148 540.165 554.06 534.5 554.121
C 529.522 554.174 524.489 554.508 519.633 553.168
C 514.732 551.814 509.936 548.836 506.204 545.439
C 504.079 543.504 502.111 541.185 500.848 538.585
C 502.018 536.862 499.872 533.727 499.3 532.002
C 498.605 528.589 498.181 525.07 497.576 521.652
C 497.664 521.204 498.99 521.066 498.033 520.442 Z"
opacity="1" fill="rgb(72,78,83)" fill-rule="evenodd" />
<path d="
M 499.3 532.002
C 499.872 533.727 502.018 536.862 500.848 538.585
C 500.232 537.037 499.351 535.647 498.98 534.002
C 498.823 533.309 498.536 532.379 499.3 532.002 Z"
opacity="0.996" fill="rgb(92,80,92)" fill-rule="evenodd" />
<path d="
M 578.747 487.296
C 578.879 489.41 581.108 489.266 581.808 490.951
C 581.064 492.418 579.444 493.756 578.415 495.076
C 577.245 496.29 575.003 496.285 573.398 496.287
C 569.485 496.293 565.57 496.207 561.655 496.287
C 558.224 496.357 554.895 495.996 551.519 495.944
C 545.877 495.858 540.238 496.263 534.581 496.275
C 530.066 496.284 525.059 495.448 520.624 496.589
C 518.8 497.058 517.203 498.223 515.453 498.889
C 513.704 496.081 510.703 500.993 509.698 501.842
C 509.215 502.251 508.669 502.387 508.284 502.911
C 507.011 503.537 506.82 504.802 505.872 505.716
C 505.191 506.372 504.164 506.217 503.563 507.013
C 503.011 507.742 503.24 508.418 502.92 509.191
C 501.95 511.524 501.231 514.342 500.72 516.826
C 500.488 517.954 500.671 519.445 500.242 520.494
C 500.223 519.107 499.839 517.761 499.866 516.378
C 499.918 513.689 500.685 510.869 501.432 508.298
C 502.184 505.704 503.413 503.394 504.805 501.096
C 509.002 494.163 516.25 489.149 524.278 487.888
C 528.637 487.203 533.107 487.616 537.502 487.605
C 544.503 487.588 551.504 487.61 558.505 487.613
C 563.3 487.616 568.093 487.589 572.888 487.634
C 574.493 487.649 577.328 488.136 578.747 487.296 Z"
opacity="1" fill="rgb(197,199,201)" fill-rule="evenodd" />
<path d="
M 595.972 584.768
C 594.324 584.945 592.782 585.619 591.043 585.754
C 586.031 586.142 580.961 585.782 575.944 585.766
C 568.598 585.743 561.252 585.831 553.909 585.784
C 550.21 585.76 546.488 586.322 542.79 586.053
C 542.206 586.01 541.874 585.586 541.347 585.539
C 540.107 585.429 539.203 586.738 537.883 586.502
C 536.622 586.277 537.731 585.051 536.426 584.935
C 534.721 584.784 533.02 585.139 531.315 585.071
C 530.111 585.023 529.206 584.408 527.962 584.36
C 525.412 584.263 522.873 584.773 520.323 584.593
C 519.414 584.529 518.735 584.107 517.871 583.974
C 518.639 582.784 521.145 583.493 522.327 583.505
C 526.479 583.549 530.646 583.061 534.796 582.922
C 542.07 582.679 549.339 583.072 556.61 583.198
C 564.735 583.338 572.885 583.096 580.969 583.135
C 584.621 583.153 589.516 582.515 592.978 583.745
C 593.849 584.054 595.402 584.008 595.972 584.768 Z"
opacity="1" fill="rgb(212,219,218)" fill-rule="evenodd" />
<path d="
M 532.98 509.381
C 533.188 509.853 533.301 510.412 533.388 510.92
C 531.627 511.27 532.408 514.298 532.168 515.496
C 531.224 520.229 532.471 525.519 532.077 530.442
C 531.878 531.794 531.332 533.441 532.982 533.525
C 532.875 534.18 532.512 534.785 532.416 535.432
C 532.322 536.056 532.988 536.752 532.622 537.255
C 532.442 537.503 530.96 538.216 530.759 537.899
C 529.362 535.698 530.132 531.769 530.482 529.396
C 530.798 527.259 530.476 525.114 530.473 522.99
C 530.468 520.547 530.746 518.039 530.848 515.585
C 530.908 514.138 531.18 512.654 531.339 511.211
C 531.375 510.889 531.318 509.635 531.46 509.435
C 531.531 509.336 532.816 509.393 532.98 509.381 Z"
opacity="1" fill="rgb(163,163,167)" fill-rule="evenodd" />
<path d="
M 532.077 530.442
C 532.521 528.832 533.375 529.939 533.85 530.844
C 534.573 531.551 535.454 531.44 536.41 531.449
C 538.439 531.467 540.47 531.397 542.5 531.403
C 549.333 531.425 556.167 531.486 563.001 531.479
C 565.2 531.477 569.212 530.976 570.988 532.332
C 571.429 533.031 571.39 533.715 571.512 534.512
C 571.149 533.992 570.798 534.21 570.264 534.43
C 570.256 534.173 570.344 533.632 570.025 533.498
C 569.509 533.283 568.551 533.671 567.993 533.676
C 565.83 533.697 563.66 533.621 561.498 533.575
C 552.013 533.376 542.455 533.166 532.982 533.525
C 531.332 533.441 531.878 531.794 532.077 530.442 Z"
opacity="1" fill="rgb(30,34,36)" fill-rule="evenodd" />
<path d="
M 532.98 509.381
C 543.792 509.67 554.684 509.255 565.504 509.229
C 575.327 509.205 585.232 509.59 595.038 509.261
C 594.332 510.164 593.556 510.592 593.471 511.831
C 589.893 512.369 585.968 511.742 582.322 511.824
C 571.389 512.068 560.437 511.784 549.501 511.829
C 545.711 511.845 541.921 511.878 538.132 511.84
C 536.687 511.826 534.786 511.506 533.621 512.464
C 533.54 511.943 533.424 511.445 533.388 510.92
C 533.301 510.412 533.188 509.853 532.98 509.381 Z"
opacity="1" fill="rgb(182,186,188)" fill-rule="evenodd" />
<path d="
M 533.621 512.464
C 534.786 511.506 536.687 511.826 538.132 511.84
C 541.921 511.878 545.711 511.845 549.501 511.829
C 560.437 511.784 571.389 512.068 582.322 511.824
C 585.968 511.742 589.893 512.369 593.471 511.831
C 593.625 513.656 593.92 515.765 593.605 517.575
C 592.386 517.955 590.774 517.625 589.505 517.61
C 586.501 517.572 583.502 517.518 580.497 517.55
C 569.833 517.662 559.165 517.702 548.501 517.73
C 544.833 517.74 541.166 517.747 537.498 517.773
C 536.297 517.781 534.288 518.222 533.236 517.651
C 533.468 515.957 533.53 514.174 533.621 512.464 Z"
opacity="1" fill="rgb(131,134,139)" fill-rule="evenodd" />
<path d="
M 595.174 463.329
C 594.926 464.547 595.738 465.226 595.757 466.385
C 595.769 467.104 595.276 467.716 595.296 468.443
C 595.313 469.04 595.807 469.769 595.688 470.349
C 595.312 472.18 594.303 471.175 593.539 471.863
C 592.825 472.504 592.651 473.517 592.148 474.298
C 591.523 475.267 590.456 475.806 589.736 476.687
C 589.001 477.587 589.506 478.725 589.064 479.75
C 587.838 482.591 585.544 485.149 583.966 487.608
C 583.142 488.892 583.369 490.21 581.808 490.951
C 581.108 489.266 578.879 489.41 578.747 487.296
C 581.909 481.006 587.169 475.695 590.674 469.573
C 591.577 467.994 593.297 463.749 595.174 463.329 Z"
opacity="1" fill="rgb(211,213,216)" fill-rule="evenodd" />
<path d="
M 624.875 497.881
C 626.187 496.954 627.539 495.84 628.994 495.165
C 631.193 499.278 635.383 500.777 639.944 500.124
C 642.132 499.81 644.89 498.735 644.736 496.082
C 644.556 492.998 640.623 492.46 638.312 491.854
C 633.523 490.599 626.599 490.162 625.812 483.942
C 625.691 482.986 625.684 481.933 625.833 480.979
C 627.066 473.103 637.606 471.714 643.812 474.117
C 645.967 474.952 649.225 476.972 649.821 479.4
C 648.625 480.51 647.318 481.52 646 482.484
C 645.219 481.89 644.799 480.838 644.062 480.155
C 642.078 478.317 639.102 477.862 636.499 478.052
C 634.103 478.226 629.767 480.554 632.109 483.527
C 633.531 485.331 636.33 485.567 638.397 486.026
C 644.105 487.295 650.81 488.973 650.769 496.102
C 650.761 497.477 650.39 498.706 649.794 499.936
C 646.722 506.282 636.587 506.722 630.879 504.331
C 628.77 503.448 624.287 500.533 624.875 497.881 Z"
opacity="1" fill="rgb(17,30,66)" fill-rule="evenodd" />
<path d="
M 627.003 522.109
C 626.991 521.877 626.979 521.646 626.967 521.414
C 628.817 521.067 631.045 521.129 632.923 521.308
C 632.71 529.86 632.294 538.872 633.032 547.389
C 636.664 547.134 640.365 547.365 644.008 547.339
C 645.562 547.327 647.923 546.876 649.377 547.406
C 649.32 549.1 649.103 551.157 649.39 552.811
C 644.185 553.29 638.731 552.764 633.499 552.801
C 631.757 552.814 628.654 553.465 627.132 552.683
C 626.634 542.519 626.881 532.273 627.003 522.109 Z"
opacity="1" fill="rgb(11,23,54)" fill-rule="evenodd" />
<path d="
M 653.458 534.095
C 654.598 527.242 659.966 521.652 666.984 520.905
C 676.447 519.897 686.57 528.215 685.044 538.338
C 684.53 541.749 683.539 545.074 681.246 547.74
C 674.874 555.149 662.47 555.197 656.402 547.392
C 653.506 543.667 652.694 538.69 653.458 534.095 Z
M 659.419 534.585
C 658.614 538.933 659.986 543.678 663.687 546.279
C 669.395 550.293 677.137 546.164 678.53 539.825
C 679.367 536.013 678.479 531.35 675.492 528.652
C 669.504 523.24 660.815 527.047 659.419 534.585 Z"
opacity="1" fill="rgb(10,22,57)" fill-rule="evenodd" />
<path d="
M 656.48 474.606
C 656.502 474.42 656.524 474.234 656.546 474.048
C 658.116 473.104 660.707 473.608 662.508 473.602
C 667.707 473.583 675.144 472.441 679.279 476.289
C 684.924 481.541 683.76 491.679 676.776 495.063
C 672.683 497.047 667.199 496.105 662.794 496.339
C 662.669 498.555 662.712 500.773 662.738 502.991
C 662.745 503.623 662.545 504.557 662.759 505.134
C 660.835 505.163 658.394 505.219 656.531 504.816
C 656.263 498.4 656.406 491.926 656.44 485.496
C 656.459 481.889 656.151 478.199 656.48 474.606 Z
M 662.839 478.863
C 661.844 482.604 662.851 486.928 662.616 490.77
C 665.161 490.896 667.746 490.852 670.294 490.784
C 671.59 490.749 673.066 490.741 674.197 490.021
C 677.695 487.795 678.025 481.231 674.007 479.255
C 671.134 477.843 665.941 478.723 662.839 478.863 Z"
opacity="1" fill="rgb(19,32,68)" fill-rule="evenodd" />
<path d="
M 683.386 504.018
C 686.788 497.035 689.675 489.77 692.796 482.653
C 694.042 479.81 694.949 476.148 696.712 473.616
C 698.738 473.471 701.09 473.24 703.076 473.729
C 706.162 481.715 709.895 489.481 713.107 497.423
C 713.859 499.281 714.636 501.141 715.413 502.989
C 715.656 503.567 716.499 504.579 716.397 505.186
C 714.201 505.293 711.916 505.224 709.73 505.001
C 708.853 502.92 708.149 500.752 707.16 498.725
C 703.616 498.827 700.048 498.679 696.5 498.697
C 695.298 498.703 693.08 498.299 692.042 498.849
C 691.318 500.505 690.665 503.883 689.269 505.024
C 687.374 505.283 685.151 505.189 683.289 504.782
C 683.27 504.225 683.225 504.477 683.386 504.018 Z
M 694.338 493.189
C 694.308 493.304 694.277 493.418 694.247 493.532
C 697.044 493.471 699.849 493.511 702.645 493.415
C 702.876 493.407 705.264 493.504 705.268 493.49
C 703.578 490.464 702.575 487.022 701.283 483.817
C 700.812 482.648 700.599 480.88 699.767 479.947
C 697.901 484.291 696.581 489.022 694.338 493.189 Z"
opacity="1" fill="rgb(16,29,63)" fill-rule="evenodd" />
<path d="
M 690.45 534.597
C 692.281 525.878 698.949 520.028 708.083 520.807
C 711.275 521.079 714.289 522.345 716.652 524.521
C 717.347 525.162 718.347 525.96 718.594 526.905
C 717.683 527.85 715.48 529.969 714.115 529.93
C 710.632 525.154 703.19 524.403 699.213 529.09
C 695.852 533.051 695.565 539.582 698.348 543.951
C 700.957 548.045 706.946 548.916 711.131 546.808
C 712.153 546.293 713.824 545.444 714.315 544.362
C 714.517 542.977 714.438 541.472 714.216 540.095
C 711.607 540.289 708.898 540.319 706.285 540.226
C 706.239 538.595 705.895 536.516 706.357 534.938
C 710.689 534.879 715.661 534.224 719.932 534.922
C 719.524 540.651 719.889 546.583 719.929 552.33
C 718.538 552.501 717.147 552.788 715.741 552.732
C 715.555 551.929 715.664 550.192 715.245 549.572
C 713.803 550.732 712.217 552.033 710.404 552.545
C 707.938 553.241 705.11 553.598 702.579 553.105
C 694.021 551.441 689.192 542.949 690.45 534.597 Z"
opacity="1" fill="rgb(15,26,61)" fill-rule="evenodd" />
<path d="
M 719.005 490.115
C 719.72 483.417 721.948 476.57 729.096 474.146
C 734.361 472.361 740.915 473.157 745.013 477.101
C 745.869 477.925 747.692 479.653 747.897 480.858
C 746.742 481.446 745.544 481.81 744.4 482.496
C 743.91 482.789 743.206 483.427 742.673 483.208
C 738.782 475.839 728.01 477.87 725.697 485.354
C 724.574 488.988 724.902 493.475 727.268 496.545
C 731.617 502.188 739.326 500.506 742.749 495.059
C 744.115 495.509 745.255 496.429 746.563 497.016
C 746.932 497.181 747.914 497.393 748.02 497.75
C 743.123 505.886 731.72 508.536 724.295 502.007
C 720.855 498.983 719.284 494.575 719.005 490.115 Z"
opacity="1" fill="rgb(14,31,67)" fill-rule="evenodd" />
<path d="
M 727.218 521.281
C 729.155 521.251 731.084 521.25 733.023 521.257
C 734.412 531.613 731.983 542.413 733.342 552.765
C 731.31 552.696 729.215 552.577 727.188 552.635
C 726.553 549.436 727.04 545.748 727.05 542.491
C 727.07 535.422 727.322 528.347 727.218 521.281 Z"
opacity="1" fill="rgb(14,27,59)" fill-rule="evenodd" />
<path d="
M 738.621 545.915
C 740.154 545.084 741.477 543.874 743.033 543.058
C 745.321 546.983 749.581 548.418 753.979 547.894
C 756.377 547.609 759.039 546.37 758.836 543.564
C 758.609 540.41 754.65 539.893 752.203 539.439
C 746.859 538.446 739.618 536.691 740.022 529.844
C 740.544 520.977 751.43 519.197 758.251 521.856
C 760.41 522.697 763.478 524.638 764.419 526.886
C 763.262 528.138 761.71 529.24 760.388 530.323
C 759.94 530.193 759.398 529.056 759.062 528.673
C 758.003 527.466 756.894 526.625 755.345 526.146
C 753.066 525.442 749.84 525.226 747.763 526.619
C 746.147 527.702 745.176 530.069 746.754 531.617
C 748.061 532.901 750.194 533.21 751.912 533.59
C 756.771 534.667 764.084 535.779 764.775 541.942
C 765.923 552.182 753.783 555.259 745.876 552.307
C 742.405 551.012 740.709 548.813 738.621 545.915 Z"
opacity="1" fill="rgb(16,28,63)" fill-rule="evenodd" />
<path d="
M 753.724 473.771
C 759.478 473.666 765.246 473.761 771.006 473.755
C 772.457 473.754 776.254 473.066 777.382 473.881
C 777.316 475.527 777.248 477.335 777.404 478.969
C 775.527 479.371 773.416 479.077 771.502 479.081
C 767.583 479.088 763.666 479.057 759.751 479.168
C 759.787 481.648 759.734 484.154 759.703 486.634
C 764.851 486.246 770.121 486.895 775.295 486.618
C 775.223 488.346 775.234 490.13 775.286 491.86
C 770.271 491.404 764.895 491.685 759.864 491.892
C 758.914 493.965 759.743 497.486 759.62 499.76
C 765.599 499.915 771.677 499.357 777.642 499.737
C 777.631 501.485 777.44 503.542 777.693 505.255
C 769.808 504.343 761.604 506.126 753.722 505.186
C 753.635 494.831 752.802 484.087 753.724 473.771 Z"
opacity="1" fill="rgb(22,36,71)" fill-rule="evenodd" />
<path d="
M 768.41 521.297
C 774.376 520.856 780.522 521.293 786.509 521.28
C 788.863 521.275 792.644 520.554 794.845 521.369
C 794.712 523.004 795.27 525.055 794.878 526.621
C 791.76 527.056 787.881 526.715 784.722 526.626
C 784.747 532.582 784.65 538.541 784.666 544.498
C 784.673 547.12 784.316 550.097 784.761 552.677
C 782.781 552.648 780.783 552.481 778.808 552.504
C 778.05 550.878 778.565 548.52 778.566 546.755
C 778.569 542.17 778.598 537.585 778.584 533.001
C 778.58 531.468 778.569 529.939 778.529 528.408
C 778.513 527.789 778.798 527.111 778.267 526.662
C 775.063 526.569 771.738 526.846 768.562 526.379
C 768.392 524.678 768.428 523.009 768.41 521.297 Z"
opacity="1" fill="rgb(19,36,75)" fill-rule="evenodd" />
<path d="
M 795.417 494.589
C 796.256 491.418 798.497 488.566 801.779 487.685
C 801.691 486.728 800.307 485.24 799.874 484.338
C 798.927 482.369 798.879 479.965 799.625 477.909
C 802.252 470.679 815.196 471.921 815.739 479.866
C 816.082 484.902 812.18 485.591 809.614 488.815
C 811.387 490.548 813.023 492.6 814.659 494.475
C 815.896 493.623 817.102 490.244 817.453 488.816
C 818.851 489.457 821.109 490.188 822.319 491.059
C 821.558 492.703 820.356 494.253 819.349 495.761
C 818.912 496.414 818.136 497.108 818.153 497.904
C 819.531 498.946 822.045 500.946 822.882 502.469
C 821.762 503.318 819.748 505.215 818.488 505.607
C 817.23 504.288 815.967 502.989 814.484 501.918
C 812.282 503.764 809.878 505.316 806.952 505.635
C 800.334 506.357 793.907 501.776 795.417 494.589 Z
M 800.918 495.611
C 800.672 499.404 804.328 501.202 807.671 500.211
C 808.234 500.044 811.258 498.804 811.097 498.316
C 809.186 496.044 807.099 492.7 804.603 491.077
C 802.655 491.958 801.321 493.514 800.918 495.611 Z
M 804.357 479.557
C 804.048 481.999 805.135 483.531 806.679 485.279
C 807.903 484.687 809.766 483.594 810.309 482.29
C 812.072 478.054 806.481 475.344 804.357 479.557 Z"
opacity="1" fill="rgb(16,29,62)" fill-rule="evenodd" />
<path d="
M 800.637 521.211
C 802.526 521.226 804.639 520.892 806.495 521.295
C 806.119 526.942 806.631 532.819 806.609 538.495
C 806.591 543.067 806.009 548.21 806.725 552.721
C 804.757 552.645 802.67 552.507 800.714 552.609
C 800.398 542.155 801.002 531.67 800.637 521.211 Z"
opacity="1" fill="rgb(14,25,57)" fill-rule="evenodd" />
<path d="
M 813.43 533.592
C 814.357 529.62 816.263 526.14 819.626 523.694
C 826.875 518.421 837.577 520.609 841.941 528.457
C 840.979 529.568 838.308 530.201 836.945 531.009
C 835.654 529.096 834.26 527.447 832.026 526.618
C 830.596 526.088 828.939 526.025 827.437 526.201
C 815.477 527.603 817.221 548.98 829.634 547.708
C 830.802 547.589 831.932 547.216 832.954 546.644
C 834.684 545.676 835.907 544.364 837.003 542.737
C 838.283 542.668 840.87 544.408 841.827 545.317
C 837.692 553.844 825.8 555.595 818.69 549.773
C 814.095 546.012 812.267 539.294 813.43 533.592 Z"
opacity="1" fill="rgb(15,27,63)" fill-rule="evenodd" />
<path d="
M 845.779 545.441
C 847.107 544.54 848.477 543.671 849.858 542.854
C 851.974 546.797 856.606 548.373 860.879 547.83
C 863.158 547.541 865.829 546.58 865.882 543.869
C 865.948 540.431 861.875 539.81 859.288 539.199
C 854.582 538.088 847.473 537.203 846.907 531.102
C 846.812 530.079 846.905 529.027 847.095 528.02
C 848.565 520.199 859.303 519.446 865.308 521.866
C 867.39 522.705 870.791 524.912 871.252 527.358
C 870.311 528.183 869.061 528.741 868.003 529.402
C 867.627 529.637 867.201 530.209 866.752 530.222
C 865.729 526.184 860.973 525.476 857.458 525.602
C 854.927 525.693 852.529 527.232 852.926 530.013
C 853.321 532.783 857.706 533.248 859.854 533.742
C 865.322 534.999 871.827 536.407 871.858 543.31
C 871.863 544.486 871.715 545.638 871.286 546.738
C 868.553 553.753 857.799 554.701 851.802 551.861
C 849.449 550.747 845.758 548.379 845.779 545.441 Z"
opacity="1" fill="rgb(20,29,64)" fill-rule="evenodd" />

</svg>